<?xml version="1.0" encoding="UTF-8" standalone="no"?>
<!-- Created with Inkscape (http://www.inkscape.org/) -->

<svg
   width="210mm"
   height="297mm"
   viewBox="0 0 210 297"
   version="1.1"
   id="svg1"
   inkscape:version="1.3.2 (091e20e, 2023-11-25, custom)"
   sodipodi:docname="Addition_Knight.svg"
   xml:space="preserve"
   xmlns:inkscape="http://www.inkscape.org/namespaces/inkscape"
   xmlns:sodipodi="http://sodipodi.sourceforge.net/DTD/sodipodi-0.dtd"
   xmlns="http://www.w3.org/2000/svg"
   xmlns:svg="http://www.w3.org/2000/svg"><sodipodi:namedview
     id="namedview1"
     pagecolor="#ffffff"
     bordercolor="#000000"
     borderopacity="0.25"
     inkscape:showpageshadow="2"
     inkscape:pageopacity="0.0"
     inkscape:pagecheckerboard="0"
     inkscape:deskcolor="#d1d1d1"
     inkscape:document-units="mm"
     inkscape:zoom="0.35055065"
     inkscape:cx="142.63274"
     inkscape:cy="454.99845"
     inkscape:window-width="1536"
     inkscape:window-height="801"
     inkscape:window-x="-8"
     inkscape:window-y="104"
     inkscape:window-maximized="1"
     inkscape:current-layer="layer1"
     showgrid="false" /><defs
     id="defs1"><inkscape:path-effect
       effect="slice"
       start_point="271.52475,145.4192"
       end_point="271.52475,211.38995"
       center_point="271.52475,178.40457"
       id="path-effect56"
       is_visible="true"
       lpeversion="1.2"
       lpesatellites="#g77"
       allow_transforms="true" /><inkscape:path-effect
       effect="slice"
       start_point="289.70396,37.407996"
       end_point="289.70396,110.98073"
       center_point="289.70396,74.194363"
       id="path-effect119"
       is_visible="true"
       lpeversion="1.2"
       lpesatellites=""
       allow_transforms="true" /><inkscape:path-effect
       effect="slice"
       start_point="271.52475,145.4192"
       end_point="271.52475,211.38995"
       center_point="271.52475,178.40457"
       id="path-effect56-4"
       is_visible="true"
       lpeversion="1.2"
       lpesatellites=""
       allow_transforms="true" /></defs><g
     inkscape:label="Layer 1"
     inkscape:groupmode="layer"
     id="layer1"><path
       d="m 105.07638,10.408021 c -45.915746,0 -83.117543,36.441711 -83.117543,81.419309 0,44.97762 37.201797,81.41932 83.117543,81.41932 45.91574,0 83.11753,-36.4417 83.11753,-81.41932 0,-44.977598 -37.20179,-81.419309 -83.11753,-81.419309 z m 48.26181,90.611829 c 0,2.16679 -1.80986,3.93968 -4.02183,3.93968 H 118.4824 v 30.2039 c 0,2.16678 -1.80979,3.9396 -4.02178,3.9396 H 95.692142 c -2.211974,0 -4.02178,-1.77282 -4.02178,-3.9396 v -30.2039 H 60.836397 c -2.211984,0 -4.021839,-1.77289 -4.021839,-3.93968 V 82.634824 c 0,-2.166786 1.809855,-3.939609 4.021839,-3.939609 H 91.670362 V 48.491253 c 0,-2.166785 1.809806,-3.939663 4.02178,-3.939663 h 18.768478 c 2.21199,0 4.02178,1.772878 4.02178,3.939663 v 30.203962 h 30.83396 c 2.21197,0 4.02183,1.772823 4.02183,3.939609 z"
       id="path1-0"
       style="fill:#0000ff;fill-opacity:1;stroke-width:0.331709" /><path
       style="fill:#8b8b8b;fill-opacity:1;stroke-width:100;stroke-dasharray:none;paint-order:stroke fill markers"
       d="m -38.292931,140.09609 c 0,46.29842 0,49.3672 0,49.3672"
       id="path87" /><path
       style="fill:#afca6b;fill-opacity:0.881818;stroke:#000000;stroke-width:18;stroke-linecap:round;stroke-linejoin:round;stroke-dasharray:none;stroke-opacity:1;paint-order:stroke fill markers"
       d="M -264.1812,31.488263 V 105.13878"
       id="path112" /><path
       style="fill:#afca6b;fill-opacity:0.881818;stroke:#000000;stroke-width:18;stroke-linecap:round;stroke-linejoin:round;stroke-dasharray:none;stroke-opacity:1;paint-order:stroke fill markers"
       d="M -264.1812,31.488263 V 105.13878"
       id="path113" /><rect
       style="fill:#ffaaaa;stroke-width:0.0592835"
       id="rect16"
       width="31.385756"
       height="16.788816"
       x="199.24763"
       y="107.65276"
       ry="5.4346776"
       rx="15.482706"
       transform="matrix(0.86500521,0.50176289,-0.4762267,0.87932254,0,0)" /><rect
       style="fill:#ffaaaa;stroke-width:0.0592708"
       id="rect17"
       width="31.122522"
       height="16.923561"
       x="135.60588"
       y="208.25359"
       ry="5.4782953"
       rx="15.352852" /><path
       id="path17"
       style="fill:#666666;stroke-width:0.0619482"
       d="m 127.96612,208.21714 c 3.58167,-4.2594 8.44929,-8.11891 8.44929,-8.11891 l -7.70636,-8.38702 c -3.14992,-3.42813 -10.97597,-0.37783 -14.38245,3.36668 -3.40648,3.74452 -4.54128,10.5429 -1.36917,13.94805 l 7.0787,7.59875 c 0,0 4.58586,-4.43062 7.92999,-8.40755 z"
       sodipodi:nodetypes="scssscs" /><rect
       style="fill:#454837;stroke-width:0.201211;stroke-dasharray:none"
       id="rect8"
       width="59.080048"
       height="102.63319"
       x="68.462051"
       y="142.9547"
       ry="33.223206"
       rx="29.144398" /><rect
       style="fill:#782121;stroke-width:0.0689281"
       id="rect19"
       width="12.904078"
       height="20.197136"
       x="148.17744"
       y="206.4908"
       ry="3.1617017"
       rx="4.5573921" /><rect
       style="fill:#ffd5d5;stroke-width:0.0592822"
       id="rect18"
       width="31.988302"
       height="16.471869"
       x="-172.55533"
       y="134.55888"
       ry="5.3320785"
       rx="15.779944"
       transform="matrix(0.4417665,-0.89713007,0.88451754,0.46650693,0,0)" /><path
       id="path11"
       style="fill:#800000;stroke-width:0.159138"
       d="m 99.332148,174.92198 c 14.823392,0.53563 23.195782,-0.0318 23.195782,-0.0318 l -0.48833,26.10558 c -0.21427,11.45469 -10.8898,20.67888 -24.41661,20.67888 -13.526794,0 -24.630861,-9.22419 -24.416588,-20.67888 l 0.488329,-26.10558 c 0,0 11.797093,-0.46837 25.637417,0.0318 z"
       sodipodi:nodetypes="scssscs" /><rect
       style="fill:#ffd5d5;stroke-width:0.0975147"
       id="rect9"
       width="42.463783"
       height="33.574158"
       x="76.902054"
       y="157.42134"
       ry="10.86823"
       rx="20.947535" /><rect
       style="fill:#000000;stroke-width:0.149529"
       id="rect86"
       width="22.655727"
       height="147.96388"
       x="262.64752"
       y="-172.51152"
       ry="47.897114"
       rx="11.176151"
       transform="rotate(90)" /><path
       style="fill:#454837;fill-opacity:1;stroke:#454837;stroke-width:17.0638;stroke-linecap:round;stroke-linejoin:round;stroke-dasharray:none;stroke-opacity:1;paint-order:stroke fill markers"
       d="m 106.83771,232.6228 c 17.47028,7.16631 19.62177,19.6172 19.38564,32.89175"
       id="path116"
       sodipodi:nodetypes="cc" /><path
       style="fill:#454837;fill-opacity:1;stroke:#454837;stroke-width:17.0638;stroke-linecap:round;stroke-linejoin:round;stroke-dasharray:none;stroke-opacity:1;paint-order:stroke fill markers"
       d="m 91.690095,232.34984 c -17.470273,7.16631 -19.621768,19.6172 -19.38564,32.89175"
       id="path117"
       sodipodi:nodetypes="cc" /><path
       id="path9"
       style="fill:#666666;stroke-width:0.159138"
       d="m 59.347181,207.79994 c 14.823392,0.53564 23.195772,-0.0318 23.195772,-0.0318 l -0.488324,26.10558 c -0.214273,11.45469 -10.8898,20.67888 -24.416607,20.67888 -13.526794,0 -24.63087,-9.22419 -24.416597,-20.67888 l 0.488329,-26.10558 c 0,0 11.797102,-0.46837 25.637427,0.0318 z"
       sodipodi:nodetypes="scssscs" /><path
       id="path10"
       style="fill:#666666;stroke-width:0.159138"
       d="m 96.17006,175.20675 c 14.82339,-0.53564 31.37204,1.94247 31.37204,1.94247 l 0.83042,-28.01635 c 0.33943,-11.45151 -20.38481,-20.67899 -33.911619,-20.67899 -13.526794,0 -28.382663,9.22511 -28.636599,20.67899 l -0.56667,25.55971 c 0,0 17.072103,1.01429 30.912428,0.51417 z"
       sodipodi:nodetypes="scssscs" /><path
       d="m 111.05341,134.69524 a 0.77794673,0.77791925 0 0 0 -0.54995,-0.22779 h -0.003 l -6.20211,0.0196 a 0.77777856,0.77775109 0 0 0 -0.59714,0.28238 l -6.843464,8.28397 -0.80916,-0.80916 a 1.557517,1.5574619 0 0 0 -2.19973,1e-4 l -1.23311,1.23317 a 1.5553063,1.5552514 0 0 0 -1e-4,2.19968 l 2.03047,2.0305 -2.91071,2.91062 a 1.5571427,1.5570877 0 0 0 1e-4,2.19958 l 1.19419,1.19415 a 1.555422,1.5553671 0 0 0 2.19974,0 l 2.91061,-2.91062 2.030564,2.0306 a 1.5576035,1.5575485 0 0 0 2.19974,-1e-4 l 1.23311,-1.23316 a 1.5553063,1.5552514 0 0 0 10e-5,-2.19968 l -0.80914,-0.80911 8.28422,-6.84328 a 0.77782912,0.77780164 0 0 0 0.28244,-0.59712 l 0.0195,-6.20192 a 0.7778048,0.77777732 0 0 0 -0.22775,-0.55236 z m -1.34608,6.38462 -8.11716,6.7053 -1.2636,-1.2636 5.28289,-5.28269 a 0.77775938,0.77773191 0 0 0 -1.09991,-1.09988 l -5.282864,5.28273 -1.26358,-1.26359 6.705454,-8.11693 5.05472,-0.0159 z"
       id="path1-4"
       style="fill:#999999;stroke-width:0.0972118" /><rect
       style="fill:#000000;stroke-width:0.084008"
       id="rect10"
       width="5.2750044"
       height="7.6428967"
       x="87.715805"
       y="176.2554"
       ry="3.8214483" /><rect
       style="fill:#000000;stroke-width:0.084008"
       id="rect11"
       width="5.2750044"
       height="7.6428967"
       x="108.55208"
       y="176.2554"
       ry="3.8214483" /><path
       id="path12"
       style="fill:#666666;stroke-width:0.0483912"
       d="m 100.59529,171.6705 c 3.56787,0.20577 5.58305,-0.0122 5.58305,-0.0122 l -0.11759,10.02902 c -0.0516,4.40055 -2.62108,7.94421 -5.87687,7.94421 -3.255807,0 -5.928468,-3.54366 -5.876889,-7.94421 l 0.117575,-10.02902 c 0,0 2.839472,-0.17993 6.170744,0.0122 z"
       sodipodi:nodetypes="scssscs" /><path
       id="path18"
       style="fill:#666666;stroke-width:0.0619482"
       d="m 60.342578,200.96144 c 4.8825,2.51985 9.713514,6.42832 9.713514,6.42832 l 5.911947,-9.82423 c 2.416456,-4.01558 -2.399709,-11.09088 -6.756656,-13.56437 -4.356956,-2.47349 -11.000573,-1.90513 -13.38998,2.12692 l -5.332057,8.9977 c 0,0 5.294536,3.48294 9.853232,5.83566 z"
       sodipodi:nodetypes="scssscs" /><g
       id="g56"
       inkscape:path-effect="#path-effect56"
       style="fill:#999999"
       transform="matrix(0.92390608,0.43520406,-0.3778329,0.85911038,-2.2609893,-92.133915)"><path
         style="fill:#999999;stroke-width:0.109675"
         id="rect23"
         width="23.629814"
         height="27.923609"
         x="259.72452"
         y="183.46634"
         ry="4.3712196"
         rx="11.55321"
         sodipodi:type="rect"
         d="m 271.52475,183.4668 h -0.24741 c -6.40047,0 -11.55273,1.94944 -11.55273,4.37109 v 19.18164 c 0,2.42165 5.15226,4.37109 11.55273,4.37109 h 0.24741 z" /><path
         style="fill:#999999;stroke-width:0.109675"
         id="rect24"
         width="23.629814"
         height="27.923609"
         x="259.72452"
         y="164.11974"
         ry="4.3712196"
         rx="8.3454494"
         sodipodi:type="rect"
         d="m 271.52475,164.11914 h -3.45444 c -4.62337,0 -8.3457,1.94944 -8.3457,4.37109 v 19.18164 c 0,2.42166 3.72233,4.3711 8.3457,4.3711 h 3.45444 z" /><path
         id="rect25"
         style="fill:#999999;stroke-width:0.109675"
         d="m 271.52475,145.43926 c -0.8769,0.10516 -1.83035,0.62456 -3.48373,1.53535 l -8.34571,4.37109 v 19.18164 c 0,2.42166 3.72233,4.3711 8.34571,4.3711 h 3.48373 z"
         sodipodi:nodetypes="cccsssscc"
         inkscape:original-d="m 268.04061,146.97464 c 3.79997,-2.09327 3.90609,-2.11957 7.87288,0.20014 l 7.41148,4.17108 v 19.18117 c 0,2.42166 -3.72207,4.37122 -8.34545,4.37122 h -6.93891 c -4.62338,0 -8.34545,-1.94956 -8.34545,-4.37122 v -19.18117 z" /><path
         style="fill:#999999;stroke-width:0.264583"
         d=""
         id="path25"
         inkscape:original-d="m 271.71536,145.76398 -0.0943,62.36245" /><path
         style="fill:#999999;stroke-width:0.264583"
         d=""
         id="path26"
         inkscape:original-d="m 271.71536,145.66963 0.0944,62.83418" /><path
         style="fill:#999999;stroke-width:0.264583"
         d=""
         id="path27"
         inkscape:original-d="m 271.80971,145.76398 -0.28303,62.73983" /><path
         style="fill:#999999;stroke-width:0.264583"
         d=""
         id="path28"
         inkscape:original-d="m 271.80971,145.76398 -0.28303,62.73983" /><path
         style="fill:#999999;stroke-width:0.264583"
         d=""
         id="path29"
         inkscape:original-d="m 271.71536,145.57529 0.1887,62.64548" /><path
         style="fill:#999999;stroke-width:0.109675"
         id="rect29"
         width="23.629814"
         height="27.923609"
         x="259.72452"
         y="164.11974"
         ry="4.3712196"
         rx="8.3454494"
         sodipodi:type="rect"
         d="m 271.52475,164.11914 h -3.45444 c -4.62337,0 -8.3457,1.94944 -8.3457,4.37109 v 19.18164 c 0,2.42166 3.72233,4.3711 8.3457,4.3711 h 3.45444 z" /><path
         id="path30"
         style="fill:#999999;stroke-width:0.109675"
         d="m 271.52475,145.43926 c -0.8769,0.10516 -1.83035,0.62456 -3.48373,1.53535 l -8.34571,4.37109 v 19.18164 c 0,2.42166 3.72233,4.3711 8.34571,4.3711 h 3.48373 z"
         sodipodi:nodetypes="cccsssscc"
         inkscape:original-d="m 268.04061,146.97464 c 3.79997,-2.09327 3.90609,-2.11957 7.87288,0.20014 l 7.41148,4.17108 v 19.18117 c 0,2.42166 -3.72207,4.37122 -8.34545,4.37122 h -6.93891 c -4.62338,0 -8.34545,-1.94956 -8.34545,-4.37122 v -19.18117 z" /><path
         style="fill:#999999;stroke-width:0.109675"
         id="rect35"
         width="23.629814"
         height="27.923609"
         x="259.72452"
         y="164.11974"
         ry="4.3712196"
         rx="8.3454494"
         sodipodi:type="rect"
         d="m 271.52475,164.11914 h -3.45444 c -4.62337,0 -8.3457,1.94944 -8.3457,4.37109 v 19.18164 c 0,2.42166 3.72233,4.3711 8.3457,4.3711 h 3.45444 z" /><path
         id="path35"
         style="fill:#999999;stroke-width:0.109675"
         d="m 271.52475,145.43926 c -0.8769,0.10516 -1.83035,0.62456 -3.48373,1.53535 l -8.34571,4.37109 v 19.18164 c 0,2.42166 3.72233,4.3711 8.34571,4.3711 h 3.48373 z"
         sodipodi:nodetypes="cccsssscc"
         inkscape:original-d="m 268.04061,146.97464 c 3.79997,-2.09327 3.90609,-2.11957 7.87288,0.20014 l 7.41148,4.17108 v 19.18117 c 0,2.42166 -3.72207,4.37122 -8.34545,4.37122 h -6.93891 c -4.62338,0 -8.34545,-1.94956 -8.34545,-4.37122 v -19.18117 z" /><path
         style="fill:#999999;stroke-width:0.264583"
         d=""
         id="path36"
         inkscape:original-d="m 271.71536,145.76398 -0.0943,62.36245" /><path
         style="fill:#999999;stroke-width:0.264583"
         d=""
         id="path37"
         inkscape:original-d="m 271.71536,145.66963 0.0944,62.83418" /><path
         style="fill:#999999;stroke-width:0.264583"
         d=""
         id="path38"
         inkscape:original-d="m 271.80971,145.76398 -0.28303,62.73983" /><path
         style="fill:#999999;stroke-width:0.264583"
         d=""
         id="path39"
         inkscape:original-d="m 271.80971,145.76398 -0.28303,62.73983" /><path
         style="fill:#999999;stroke-width:0.264583"
         d=""
         id="path40"
         inkscape:original-d="m 271.71536,145.57529 0.1887,62.64548" /><path
         style="fill:#999999;stroke-width:0.109675"
         id="rect40"
         width="23.629814"
         height="27.923609"
         x="259.72452"
         y="164.11974"
         ry="4.3712196"
         rx="8.3454494"
         sodipodi:type="rect"
         d="m 271.52475,164.11914 h -3.45444 c -4.62337,0 -8.3457,1.94944 -8.3457,4.37109 v 19.18164 c 0,2.42166 3.72233,4.3711 8.3457,4.3711 h 3.45444 z" /><path
         id="path41"
         style="fill:#999999;stroke-width:0.109675"
         d="m 271.52475,145.43926 c -0.8769,0.10516 -1.83035,0.62456 -3.48373,1.53535 l -8.34571,4.37109 v 19.18164 c 0,2.42166 3.72233,4.3711 8.34571,4.3711 h 3.48373 z"
         sodipodi:nodetypes="cccsssscc"
         inkscape:original-d="m 268.04061,146.97464 c 3.79997,-2.09327 3.90609,-2.11957 7.87288,0.20014 l 7.41148,4.17108 v 19.18117 c 0,2.42166 -3.72207,4.37122 -8.34545,4.37122 h -6.93891 c -4.62338,0 -8.34545,-1.94956 -8.34545,-4.37122 v -19.18117 z" /><path
         style="fill:#999999;stroke-width:0.264583"
         d="m 269.86914,208.64258 0.082,0.0508 z"
         id="path55"
         inkscape:original-d="m 269.95183,208.69314 -0.0834,-0.05 z" /><path
         style="fill:#999999;stroke-width:0.264583"
         d=""
         id="path56"
         inkscape:original-d="M 271.64461,208.75147 Z" /></g><g
       id="g77"
       style="display:inline"
       transform="matrix(0.92390608,0.43520406,-0.3778329,0.85911038,-2.6566141,-92.463405)"><path
         id="path57"
         d="m 271.52475,211.39062 h 0.27603 c 6.40047,0 11.55274,-1.94944 11.55274,-4.37109 v -19.18164 c 0,-2.42166 -5.15227,-4.37109 -11.55274,-4.37109 h -0.27603 z"
         style="fill:#666666;stroke-width:0.109675" /><path
         id="path58"
         d="m 271.52475,192.04297 h 3.48502 c 4.62337,0 8.34375,-1.94944 8.34375,-4.3711 v -19.18164 c 0,-2.42165 -3.72038,-4.37109 -8.34375,-4.37109 h -3.48502 z"
         style="fill:#666666;stroke-width:0.109675" /><path
         id="path59"
         d="m 271.52475,174.89844 h 3.45572 c 4.62337,0 8.34375,-1.94944 8.34375,-4.3711 V 151.3457 l -7.41016,-4.17187 c -1.98339,-1.15986 -3.00262,-1.73218 -4,-1.75391 -0.12944,-0.003 -0.25853,0.004 -0.38931,0.0193 z"
         style="fill:#666666;stroke-width:0.109675" /><path
         id="path60"
         d="m 271.71484,145.76367 -0.0937,62.36328 z"
         style="fill:#cccccc;stroke-width:0.264583" /><path
         id="path61"
         d="m 271.71484,145.66992 0.0957,62.83399 z"
         style="fill:#cccccc;stroke-width:0.264583" /><path
         id="path62"
         d="m 271.81055,145.76367 -0.28321,62.74024 z"
         style="fill:#cccccc;stroke-width:0.264583" /><path
         id="path63"
         d="m 271.81055,145.76367 -0.28321,62.74024 z"
         style="fill:#cccccc;stroke-width:0.264583" /><path
         id="path64"
         d="m 271.71484,145.57617 0.18946,62.64453 z"
         style="fill:#cccccc;stroke-width:0.264583" /><path
         id="path65"
         d="m 271.52475,192.04297 h 3.48502 c 4.62337,0 8.34375,-1.94944 8.34375,-4.3711 v -19.18164 c 0,-2.42165 -3.72038,-4.37109 -8.34375,-4.37109 h -3.48502 z"
         style="fill:#666666;stroke-width:0.109675" /><path
         id="path66"
         d="m 271.52475,174.89844 h 3.45572 c 4.62337,0 8.34375,-1.94944 8.34375,-4.3711 V 151.3457 l -7.41016,-4.17187 c -1.98339,-1.15986 -3.00262,-1.73218 -4,-1.75391 -0.12944,-0.003 -0.25853,0.004 -0.38931,0.0193 z"
         style="fill:#666666;stroke-width:0.109675" /><path
         id="path67"
         d="m 271.52475,192.04297 h 3.48502 c 4.62337,0 8.34375,-1.94944 8.34375,-4.3711 v -19.18164 c 0,-2.42165 -3.72038,-4.37109 -8.34375,-4.37109 h -3.48502 z"
         style="fill:#666666;stroke-width:0.109675" /><path
         id="path68"
         d="m 271.52475,174.89844 h 3.45572 c 4.62337,0 8.34375,-1.94944 8.34375,-4.3711 V 151.3457 l -7.41016,-4.17187 c -1.98339,-1.15986 -3.00262,-1.73218 -4,-1.75391 -0.12944,-0.003 -0.25853,0.004 -0.38931,0.0193 z"
         style="fill:#666666;stroke-width:0.109675" /><path
         id="path69"
         d="m 271.71484,145.76367 -0.0937,62.36328 z"
         style="fill:#cccccc;stroke-width:0.264583" /><path
         id="path70"
         d="m 271.71484,145.66992 0.0957,62.83399 z"
         style="fill:#cccccc;stroke-width:0.264583" /><path
         id="path71"
         d="m 271.81055,145.76367 -0.28321,62.74024 z"
         style="fill:#cccccc;stroke-width:0.264583" /><path
         id="path72"
         d="m 271.81055,145.76367 -0.28321,62.74024 z"
         style="fill:#cccccc;stroke-width:0.264583" /><path
         id="path73"
         d="m 271.71484,145.57617 0.18946,62.64453 z"
         style="fill:#cccccc;stroke-width:0.264583" /><path
         id="path74"
         d="m 271.52475,192.04297 h 3.48502 c 4.62337,0 8.34375,-1.94944 8.34375,-4.3711 v -19.18164 c 0,-2.42165 -3.72038,-4.37109 -8.34375,-4.37109 h -3.48502 z"
         style="fill:#666666;stroke-width:0.109675" /><path
         id="path75"
         d="m 271.52475,174.89844 h 3.45572 c 4.62337,0 8.34375,-1.94944 8.34375,-4.3711 V 151.3457 l -7.41016,-4.17187 c -1.98339,-1.15986 -3.00262,-1.73218 -4,-1.75391 -0.12944,-0.003 -0.25853,0.004 -0.38931,0.0193 z"
         style="fill:#666666;stroke-width:0.109675" /><path
         id="path76"
         d=""
         style="fill:#999999;stroke-width:0.264583" /><path
         id="path77"
         d=""
         style="fill:#999999;stroke-width:0.264583" /></g><rect
       style="fill:#6c5353;stroke-width:0.0683446"
       id="rect22"
       width="12.759362"
       height="20.081827"
       x="231.2811"
       y="116.0186"
       ry="3.1436508"
       rx="4.5062819"
       transform="matrix(0.90465841,0.42613748,-0.4025818,0.91538401,0,0)" /><rect
       style="fill:#806600;stroke-width:0.0623226"
       id="rect21"
       width="6.7535019"
       height="31.548985"
       x="113.02621"
       y="221.74153"
       ry="4.9387436"
       rx="2.3851655"
       transform="matrix(-0.4025818,0.91538401,0.90465842,0.42613746,0,0)" /><path
       id="path78"
       style="fill:#666666;stroke-width:0.0240556"
       d="m 163.23932,222.87191 c 1.82086,0.95544 2.90704,1.3638 2.90704,1.3638 l -1.79638,3.9168 c -0.78824,1.71861 -2.73837,2.48296 -4.43246,1.68497 -1.69409,-0.79801 -2.47162,-2.84722 -1.68339,-4.56583 l 1.79639,-3.91679 c 0,0 1.5086,0.62516 3.2088,1.51705 z"
       sodipodi:nodetypes="scssscs" /><rect
       style="fill:#ffaaaa;stroke-width:0.0594682"
       id="rect20"
       width="12.231989"
       height="15.859798"
       x="232.64143"
       y="119.52096"
       ry="2.4827256"
       rx="4.3200274"
       transform="matrix(0.90465841,0.42613748,-0.4025818,0.91538401,0,0)" /><path
       id="path79"
       style="fill:#4d4d4d;stroke-width:0.13006"
       d="m 59.399585,212.7699 c 12.525413,0.42342 19.599876,-0.0251 19.599876,-0.0251 l -0.412622,20.63614 c -0.181056,9.05479 -9.201622,16.3464 -20.631453,16.3464 -11.429819,0 -20.8125,-7.29161 -20.631444,-16.3464 l 0.412627,-20.63614 c 0,0 9.968271,-0.37024 21.663016,0.0251 z"
       sodipodi:nodetypes="scssscs" /><path
       d="m 57.880783,215.88757 c -8.28629,0 -15,6.71371 -15,15 0,8.28629 6.71371,15 15,15 8.28629,0 15,-6.71371 15,-15 0,-8.28629 -6.71371,-15 -15,-15 z m 8.70968,16.69355 c 0,0.39919 -0.32662,0.72581 -0.72581,0.72581 h -5.56452 v 5.56451 c 0,0.39919 -0.32661,0.7258 -0.7258,0.7258 h -3.3871 c -0.39919,0 -0.7258,-0.32661 -0.7258,-0.7258 v -5.56451 h -5.56452 c -0.39919,0 -0.72581,-0.32662 -0.72581,-0.72581 v -3.3871 c 0,-0.39919 0.32662,-0.7258 0.72581,-0.7258 h 5.56452 v -5.56452 c 0,-0.39919 0.32661,-0.72581 0.7258,-0.72581 h 3.3871 c 0.39919,0 0.7258,0.32662 0.7258,0.72581 v 5.56452 h 5.56452 c 0.39919,0 0.72581,0.32661 0.72581,0.7258 z"
       id="path1"
       style="fill:#0000ff;stroke-width:0.0604838" /><rect
       style="fill:#999999;stroke-width:0.075432"
       id="rect84"
       width="5.5387545"
       height="5.8686528"
       x="97.195053"
       y="166.83749"
       ry="2.9343264" /><rect
       style="fill:#999999;stroke-width:0.075432"
       id="rect85"
       width="5.5387545"
       height="5.8686528"
       x="97.288307"
       y="157.18698"
       ry="2.9343264" /></g></svg>
