<?xml version="1.0" encoding="UTF-8" standalone="no"?>
<!-- Created with Inkscape (http://www.inkscape.org/) -->

<svg
   width="210mm"
   height="297mm"
   viewBox="0 0 210 297"
   version="1.1"
   id="svg1"
   inkscape:version="1.3.2 (091e20e, 2023-11-25, custom)"
   sodipodi:docname="Division_Knight.svg"
   xml:space="preserve"
   xmlns:inkscape="http://www.inkscape.org/namespaces/inkscape"
   xmlns:sodipodi="http://sodipodi.sourceforge.net/DTD/sodipodi-0.dtd"
   xmlns="http://www.w3.org/2000/svg"
   xmlns:svg="http://www.w3.org/2000/svg"><sodipodi:namedview
     id="namedview1"
     pagecolor="#ffffff"
     bordercolor="#000000"
     borderopacity="0.25"
     inkscape:showpageshadow="2"
     inkscape:pageopacity="0.0"
     inkscape:pagecheckerboard="0"
     inkscape:deskcolor="#d1d1d1"
     inkscape:document-units="mm"
     inkscape:zoom="0.99150695"
     inkscape:cx="223.39732"
     inkscape:cy="479.06875"
     inkscape:window-width="2400"
     inkscape:window-height="1271"
     inkscape:window-x="-9"
     inkscape:window-y="-9"
     inkscape:window-maximized="1"
     inkscape:current-layer="layer1"
     showgrid="false" /><defs
     id="defs1"><inkscape:path-effect
       effect="slice"
       start_point="289.70396,37.407996"
       end_point="289.70396,110.98073"
       center_point="289.70396,74.194363"
       id="path-effect119"
       is_visible="true"
       lpeversion="1.2"
       lpesatellites="#g120"
       allow_transforms="true" /><inkscape:path-effect
       effect="slice"
       start_point="271.52475,145.4192"
       end_point="271.52475,211.38995"
       center_point="271.52475,178.40457"
       id="path-effect56"
       is_visible="true"
       lpeversion="1.2"
       lpesatellites="#g77"
       allow_transforms="true" /></defs><g
     inkscape:label="Layer 1"
     inkscape:groupmode="layer"
     id="layer1"><rect
       style="fill:#000000;stroke-width:0.264583"
       id="rect3"
       width="47.550194"
       height="80.75985"
       x="-510.2211"
       y="-57.739517"
       ry="12.642315"
       rx="16.79352" /><rect
       style="fill:#ffb380;fill-opacity:1;stroke-width:0.05896"
       id="rect71"
       width="30.799545"
       height="16.922194"
       x="-184.38922"
       y="-78.175697"
       ry="5.4778523"
       rx="15.193526"
       transform="matrix(-0.90274272,-0.43018087,0.38477149,-0.92301186,0,0)" /><path
       id="path71"
       style="fill:#666666;stroke-width:0.0615853"
       d="m 123.46094,135.58272 c 2.59387,-4.98615 6.49653,-9.85539 6.49653,-9.85539 l -9.01528,-6.62264 c -3.68491,-2.70695 -10.57682,2.00285 -13.10379,6.44206 -2.52699,4.43923 -2.28266,11.40555 1.419,14.08499 l 8.26043,5.97927 c 0,0 3.52128,-5.37282 5.94311,-10.02829 z"
       sodipodi:nodetypes="scssscs" /><rect
       style="fill:#454837;stroke-width:0.200032;stroke-dasharray:none"
       id="rect8"
       width="57.785664"
       height="103.70644"
       x="58.812336"
       y="81.053261"
       ry="33.570621"
       rx="28.505873" /><rect
       style="fill:#000000;stroke-width:0.148652"
       id="rect86"
       width="22.892639"
       height="144.72212"
       x="202.92201"
       y="-163.02153"
       ry="46.847733"
       rx="11.293021"
       transform="rotate(90)" /><path
       style="fill:#454837;fill-opacity:1;stroke:#454837;stroke-width:16.9638;stroke-linecap:round;stroke-linejoin:round;stroke-dasharray:none;stroke-opacity:1;paint-order:stroke fill markers"
       d="M 81.531473,171.38267 C 64.443954,178.62392 62.339596,191.205 62.570552,204.61836"
       id="path117"
       sodipodi:nodetypes="cc" /><rect
       style="fill:#666666;fill-opacity:1;stroke-width:0.187015"
       id="rect48"
       width="13.930471"
       height="14.34238"
       x="90.43721"
       y="130.94144"
       ry="7.1711898" /><rect
       style="fill:#666666;fill-opacity:1;stroke-width:0.187015"
       id="rect1"
       width="13.930471"
       height="14.34238"
       x="71.346748"
       y="131.14282"
       ry="7.1711898" /><path
       style="fill:#454837;fill-opacity:1;stroke:#454837;stroke-width:16.9638;stroke-linecap:round;stroke-linejoin:round;stroke-dasharray:none;stroke-opacity:1;paint-order:stroke fill markers"
       d="m 96.347223,171.65848 c 17.087517,7.24124 19.191877,19.82234 18.960927,33.2357"
       id="path116"
       sodipodi:nodetypes="cc" /><g
       style="fill:#aa4400"
       id="g30"
       transform="matrix(0.20398394,0,0,0.27448829,47.582262,70.726873)"><g
         id="g1"
         style="fill:#aa4400">
	<path
   d="m 283.571,130.425 c -5.5,-17.673 -68.592,-0.444 -84.881,2.294 -16.296,2.738 -99.407,-19.074 -99.109,-2.294 0.297,16.774 0.922,41.465 0,44.122 -0.923,2.674 4.127,40.753 4.127,40.753 0,0 46.335,38.09 15.601,58.724 6.89,-1.378 20.184,13.756 0,28.435 9.184,3.234 6.89,29.834 -10.089,39.024 -3.217,4.122 19.273,21.101 4.133,32.112 -15.15,11.012 -25.695,-25.036 -25.695,-25.036 0,0 -18.817,-5.71 -12.839,-21.311 -8.268,5.967 -61.941,-23.401 -27.996,-55.969 -0.904,5.968 -45.424,-14.689 -11.922,-50.024 -8.262,0 -58.228,-42.989 30.278,-85.342 -14.217,-6.411 -18.356,-105.981 9.64,-116.993 27.979,-11.012 28.434,27.523 28.434,27.523 0,0 9.185,-43.579 83.054,-42.663 55.974,-20.65 97.264,50.02 97.264,50.02 0,0 -7.801,-53.68 28.445,-35.323 36.233,18.356 10.089,121.594 -16.979,119.299 -2.301,0.455 118.838,55.98 41.302,100.925 21.101,26.168 -21.579,46.347 -21.579,46.347 0,0 27.534,32.124 -13.312,58.269 -2.744,4.146 3.678,26.156 -17.89,24.312 -21.556,-1.822 -4.134,-33.035 -4.134,-33.035 0,0 -47.713,-31.656 1.378,-66.992 -9.167,-0.467 -36.246,-15.6 0,-75.702 2.405,-11.806 6.434,-31.201 6.434,-33.496 0,-2.295 1.846,-10.311 -3.665,-27.979 z"
   id="path1"
   style="fill:#aa4400" />
</g></g><rect
       style="fill:#ffccaa;fill-opacity:1;stroke-width:0.0969438"
       id="rect9"
       width="41.53344"
       height="33.925247"
       x="67.067429"
       y="95.671455"
       ry="10.981879"
       rx="20.488594" /><path
       id="path10"
       style="fill:#666666;stroke-width:0.158206"
       d="m 85.913289,113.64202 c 14.498631,-0.54124 30.684701,1.96279 30.684701,1.96279 l 0.81224,-28.30927 C 117.74222,75.724348 97.47202,66.400427 84.241574,66.400427 c -13.230437,0 -27.760825,9.321524 -28.009198,20.895113 l -0.554255,25.82694 c 0,0 16.698067,1.0249 30.235168,0.51954 z"
       sodipodi:nodetypes="scssscs" /><rect
       style="fill:#000000;stroke-width:0.0835163"
       id="rect10"
       width="5.1594338"
       height="7.7228189"
       x="77.644249"
       y="114.70271"
       ry="3.8614094" /><rect
       style="fill:#000000;stroke-width:0.0835163"
       id="rect11"
       width="5.1594338"
       height="7.7228189"
       x="98.024025"
       y="114.70271"
       ry="3.8614094" /><path
       id="path12"
       style="fill:#666666;stroke-width:0.0481078"
       d="m 90.241572,110.06879 c 3.4897,0.20793 5.460716,-0.0124 5.460716,-0.0124 l -0.08276,9.99598 c -0.01511,1.82197 -4.561823,9.16386 -5.715861,9.13054 -1.207931,-0.0349 -5.812627,-8.99263 -5.812627,-8.99263 l 0.115001,-10.13389 c 0,0 2.777258,-0.18182 6.035542,0.0124 z"
       sodipodi:nodetypes="scssccss" /><rect
       style="fill:#999999;stroke-width:0.0749901"
       id="rect84"
       width="5.4174056"
       height="5.9300218"
       x="86.915825"
       y="105.18613"
       ry="2.9650109" /><rect
       style="fill:#999999;stroke-width:0.0749901"
       id="rect85"
       width="5.4174056"
       height="5.9300218"
       x="87.007027"
       y="95.434601"
       ry="2.9650109" /><rect
       style="fill:#d38d5f;fill-opacity:1;stroke-width:0.0589812"
       id="rect12"
       width="31.881027"
       height="16.359903"
       x="-101.83412"
       y="106.78062"
       ry="5.2958341"
       rx="15.727025"
       transform="matrix(0.54276068,-0.8398874,0.80433459,0.59417663,0,0)" /><path
       id="path13"
       style="fill:#666666;stroke-width:0.0615853"
       d="m 48.662161,139.33457 c 5.246284,1.04409 10.805012,3.45204 10.805012,3.45204 l 3.006474,-11.2443 c 1.228868,-4.59601 -5.138879,-10.08482 -9.878889,-11.23498 -4.740023,-1.15017 -10.839895,1.31237 -12.039041,5.91661 l -2.675942,10.27456 c 0,0 5.884039,1.86125 10.782386,2.83607 z"
       sodipodi:nodetypes="scssscs" /><rect
       style="fill:#d38d5f;fill-opacity:1;stroke-width:0.0589358"
       id="rect13"
       width="32.446743"
       height="16.049917"
       x="-160.08601"
       y="63.559898"
       ry="5.1954894"
       rx="16.006096"
       transform="matrix(0.20708394,-0.97832318,0.97195184,0.23517998,0,0)" /><rect
       style="fill:#ffb380;fill-opacity:1;stroke-width:0.0589323"
       id="rect75"
       width="30.514874"
       height="17.063976"
       x="-130.47612"
       y="-172.06165"
       ry="5.5237484"
       rx="15.053097"
       transform="matrix(-0.98040561,0.19698942,-0.17311645,-0.98490136,0,0)" /><rect
       style="fill:#ffccaa;fill-opacity:1;stroke-width:0.0593738;stroke-dasharray:none"
       id="rect14"
       width="12.713336"
       height="15.076176"
       x="-177.45369"
       y="33.599953"
       ry="2.3600559"
       rx="4.490027"
       transform="matrix(0.03131515,-0.99950956,0.99935928,0.03579157,0,0)" /><g
       id="g2"
       transform="matrix(1.7173838,-0.12551706,0.12666637,1.6735982,-121.21161,-30.043218)"><path
         d="m 153.36789,108.44803 -1.63777,-1.64041 24.13794,-24.137941 1.63777,1.637771 z"
         fill="url(#a)"
         id="path20"
         style="fill:#ffb380;stroke-width:0.264583" /><path
         d="m 176.97931,83.198846 c -0.59532,-0.595313 -1.10861,-0.529167 -1.10861,-0.529167 l -4.26508,4.265083 c 0.25135,-0.05556 0.69321,0.15875 1.08744,0.550334 0.39158,0.391583 0.60589,0.833437 0.55033,1.087437 l 4.26508,-4.265083 c -0.003,0 0.0662,-0.510646 -0.52916,-1.108604 z"
         fill="url(#c)"
         id="path21"
         style="fill:#ffb380;stroke-width:0.264583" /><path
         d="m 157.15143,103.02672 c -0.59531,-0.59531 -1.1086,-0.52917 -1.1086,-0.52917 l -4.27832,4.27567 c 0.25136,-0.0556 0.70644,0.14817 1.10067,0.53975 0.39158,0.39158 0.59531,0.84931 0.53975,1.10067 l 4.27567,-4.27832 c 0,0 0.0661,-0.51329 -0.52917,-1.1086 z"
         fill="url(#d)"
         id="path22"
         style="fill:#ffb380;stroke-width:0.264583" /><ellipse
         cx="31.798883"
         cy="183.97348"
         fill="#9e9e9e"
         rx="0.51328677"
         ry="1.1588639"
         transform="rotate(-45)"
         id="ellipse22"
         style="fill:#ffb380;stroke-width:0.264581" /><path
         d="m 175.86276,82.674971 -17.97579,17.978439 c -0.20108,0.20108 0.003,0.73025 0.45509,1.18004 0.45243,0.45244 0.9816,0.65617 1.18004,0.45508 l 17.97844,-17.978434 c 0,0 0.11112,-0.497417 -0.52388,-1.113896 -0.635,-0.616479 -1.1139,-0.521229 -1.1139,-0.521229 z"
         fill="url(#e)"
         opacity="0.85"
         id="path23"
         style="fill:#ffb380;stroke-width:0.264583" /><path
         d="M 169.71649,88.821241 151.7407,106.79968 c -0.20108,0.20108 0.003,0.73025 0.45509,1.18004 0.45243,0.45244 0.9816,0.65617 1.18004,0.45508 l 17.98108,-17.975788 c 0,0 0.11113,-0.497417 -0.52387,-1.113896 -0.63765,-0.613833 -1.11655,-0.523875 -1.11655,-0.523875 z"
         fill="url(#f)"
         opacity="0.22"
         id="path24"
         style="fill:#2b1100;stroke-width:0.264583" /><path
         d="m 168.59995,80.648262 1.58221,-1.576916 c 0.0873,-0.08731 0.23813,-0.01588 0.2249,0.108479 l -0.20373,1.849437 c -0.008,0.07144 0.0423,0.137584 0.11641,0.145521 l 2.26484,0.269875 c 0.13229,0.01587 0.16139,0.195792 0.037,0.251354 L 170.2615,82.7517 c -0.0344,0.01587 -0.0609,0.04762 -0.0714,0.08467 l -0.68263,2.341563 c -0.0318,0.113771 -0.18521,0.129646 -0.24077,0.02646 l -1.05569,-1.918229 c -0.0238,-0.04498 -0.0741,-0.07144 -0.127,-0.06879 l -2.0267,0.164042 c -0.12436,0.01058 -0.1905,-0.140229 -0.10319,-0.224896 l 1.34408,-1.309687 c 0.0397,-0.03704 0.0503,-0.0979 0.0291,-0.148167 l -0.71173,-1.627187 c -0.0476,-0.111125 0.0661,-0.224896 0.17727,-0.17198 l 1.66423,0.777875 c 0.045,0.02117 0.10318,0.01058 0.14287,-0.0291 z"
         fill="url(#h)"
         id="path25"
         style="fill:#ffcc00;fill-opacity:1;stroke-width:0.264583" /><path
         d="m 174.3467,92.406345 1.25413,0.579438 c 0.0317,0.01588 0.0688,0.01058 0.0952,-0.01058 l 1.25677,-0.949855 c 0.0661,-0.05027 0.1561,0.0026 0.15081,0.08202 l -0.11906,1.561042 c -0.003,0.0344 0.0132,0.06879 0.045,0.08731 l 1.19856,0.740834 c 0.0714,0.04498 0.0529,0.156104 -0.0317,0.171979 l -1.50283,0.309562 c -0.037,0.0079 -0.0661,0.0344 -0.0741,0.07144 l -0.32014,1.415521 c -0.0185,0.08467 -0.13229,0.100541 -0.17463,0.02381 l -0.66675,-1.219729 c -0.0159,-0.03175 -0.0503,-0.05027 -0.0847,-0.05027 l -1.57692,0.05027 c -0.082,0.0026 -0.127,-0.0926 -0.0767,-0.156104 l 1.016,-1.214438 c 0.0238,-0.02646 0.0291,-0.0635 0.0159,-0.09789 l -0.53445,-1.275292 c -0.0291,-0.07673 0.0529,-0.156104 0.12964,-0.119063 z"
         fill="url(#i)"
         id="path26"
         style="fill:#ffcc00;fill-opacity:1;stroke-width:0.264583" /><path
         d="m 179.52195,78.7512 2.23044,-0.989542 c 0.11112,-0.05027 0.20902,0.06085 0.15081,0.166688 l -1.10331,2.032 c -0.0265,0.04762 -0.0212,0.105833 0.0132,0.142875 l 2.38919,2.31775 c 0.0714,0.07408 0.0106,0.206375 -0.0979,0.211666 L 180.17283,82.1167 c -0.045,0.0026 -0.0873,0.0291 -0.11113,0.07144 l -1.54252,2.823104 c -0.0582,0.103188 -0.20637,0.09261 -0.23019,-0.01587 l -0.30162,-2.74902 c -0.0106,-0.04762 -0.0529,-0.08202 -0.10319,-0.08731 l -2.42094,-0.394229 c -0.10318,-0.0079 -0.14287,-0.132292 -0.0635,-0.209021 l 2.02407,-1.55575 c 0.0291,-0.0291 0.045,-0.06879 0.0397,-0.108479 l -0.36248,-3.063875 c -0.0106,-0.116417 0.13494,-0.193146 0.21696,-0.113771 l 2.06904,2.016125 c 0.0344,0.03175 0.0873,0.03969 0.13494,0.02117 z"
         fill="url(#j)"
         id="path27"
         style="fill:#ffcc00;stroke-width:0.264583" /><path
         d="m 175.98712,82.778158 c -0.98954,0.254 -1.99231,0.473604 -3.01625,0.558271 -1.02394,0.0926 -2.06375,0.01852 -3.07446,-0.164042 -1.01071,-0.187854 -2.0029,-0.423333 -3.00302,-0.608541 -1.00013,-0.185209 -2.00554,-0.333375 -3.01625,-0.449792 -0.50535,-0.05821 -1.01335,-0.100542 -1.51871,-0.150813 -0.49477,-0.04762 -0.98425,-0.0344 -1.44992,0.07408 -0.45772,0.116416 -0.8837,0.336021 -1.15887,0.695854 -0.27781,0.354542 -0.4101,0.814917 -0.4101,1.288521 -0.005,0.955146 0.37835,1.907646 0.86518,2.767541 0.48948,0.865188 1.13242,1.651 1.77536,2.436813 1.28058,1.576916 2.66435,3.077104 4.03754,4.587875 0.68792,0.756708 1.37583,1.510771 2.05317,2.278062 0.68262,0.762 1.34143,1.547813 1.97114,2.357438 0.63236,0.806979 1.23296,1.651005 1.72244,2.566465 0.12171,0.22225 0.25664,0.46831 0.29633,0.76464 0.0132,0.15082 -0.003,0.3175 -0.0873,0.46567 -0.0847,0.14817 -0.2249,0.24077 -0.35983,0.30162 -0.27782,0.11113 -0.55298,0.11907 -0.81757,0.10584 -0.26458,-0.0159 -0.52387,-0.0582 -0.77787,-0.11642 -1.01071,-0.24606 -1.95527,-0.66675 -2.86544,-1.14035 -0.45508,-0.23813 -0.89958,-0.49213 -1.33614,-0.75936 -0.43392,-0.26987 -0.8599,-0.55562 -1.27794,-0.846668 0.86783,0.539758 1.75683,1.042458 2.67494,1.479028 0.9181,0.43391 1.87325,0.81227 2.85485,1.01071 0.24606,0.045 0.49212,0.082 0.73554,0.0899 0.24342,0.008 0.48948,-0.0132 0.68527,-0.0979 0.0952,-0.045 0.17463,-0.10319 0.21431,-0.18256 0.0397,-0.0767 0.0503,-0.17463 0.0397,-0.27782 -0.0317,-0.21166 -0.14552,-0.42333 -0.27516,-0.64293 -0.49478,-0.87313 -1.10067,-1.68805 -1.74625,-2.471217 -2.58234,-3.132667 -5.5245,-5.979583 -8.14917,-9.138708 -0.64294,-0.796396 -1.29381,-1.606021 -1.80446,-2.524125 -0.50271,-0.910167 -0.9181,-1.920875 -0.90487,-3.024188 0.005,-0.545041 0.16404,-1.119187 0.52387,-1.568979 0.35719,-0.457729 0.89165,-0.722312 1.41817,-0.849312 0.53181,-0.116417 1.07685,-0.129646 1.59808,-0.06879 0.508,0.0635 1.01865,0.116417 1.52665,0.187854 1.016,0.142875 2.0267,0.3175 3.02948,0.526521 1.00277,0.211667 1.99495,0.465667 2.98714,0.679979 0.98954,0.216959 2.00025,0.330729 3.01625,0.277813 1.01336,-0.04763 2.02142,-0.219604 3.02419,-0.418042 z"
         fill="#fdd835"
         id="path28"
         style="fill:#ffcc00;fill-opacity:1;stroke-width:0.264583" /><path
         d="m 168.44385,85.098554 c -2.97656,0.693208 -6.39234,-1.322917 -9.54617,-0.968375 -1.20385,0.15875 -1.69862,1.598083 -0.54239,3.878792 2.27012,3.907895 5.5827,6.215062 6.80508,7.646458 -1.64306,-0.92075 -5.01915,-3.346979 -7.366,-5.630334 -3.53219,-3.386666 -2.87867,-7.619999 0.39687,-7.60677 1.09802,-0.105834 3.22263,0.423333 4.11163,0.748771 0.87577,0.351895 3.85762,1.651 6.14098,1.931458 z"
         fill="url(#k)"
         id="path29"
         style="fill:#ffcc00;fill-opacity:1;stroke-width:0.264583" /></g><rect
       style="fill:#ffccaa;fill-opacity:1;stroke-width:0.0593747;stroke-dasharray:none"
       id="rect76"
       width="12.016085"
       height="15.951522"
       x="-209.15163"
       y="-5.6373658"
       ry="2.4970841"
       rx="4.2437754"
       transform="matrix(-0.75390348,-0.65698519,0.64995918,-0.75996912,0,0)"
       inkscape:transform-center-x="-2.9296309"
       inkscape:transform-center-y="-6.5607571" /><g
       id="g28"
       transform="matrix(0.18086429,0,0,0.19337423,99.062807,153.84528)"><path
         d="m 35.56,40.73 c -0.57,6.08 -0.97,16.84 2.62,21.42 0,0 -1.69,-11.82 13.46,-26.65 6.1,-5.97 7.51,-14.09 5.38,-20.18 C 55.81,11.87 53.6,9.02 51.68,7.03 50.56,5.86 51.42,3.93 53.05,4 c 9.86,0.44 25.84,3.18 32.63,20.22 2.98,7.48 3.2,15.21 1.78,23.07 -0.9,5.02 -4.1,16.18 3.2,17.55 5.21,0.98 7.73,-3.16 8.86,-6.14 0.47,-1.24 2.1,-1.55 2.98,-0.56 8.8,10.01 9.55,21.8 7.73,31.95 -3.52,19.62 -23.39,33.9 -43.13,33.9 -24.66,0 -44.29,-14.11 -49.38,-39.65 -2.05,-10.31 -1.01,-30.71 14.89,-45.11 1.18,-1.08 3.11,-0.12 2.95,1.5 z"
         fill="url(#a)"
         id="path12-2" /><path
         d="m 76.11,77.42 c -9.09,-11.7 -5.02,-25.05 -2.79,-30.37 0.3,-0.7 -0.5,-1.36 -1.13,-0.93 -3.91,2.66 -11.92,8.92 -15.65,17.73 -5.05,11.91 -4.69,17.74 -1.7,24.86 1.8,4.29 -0.29,5.2 -1.34,5.36 -1.02,0.16 -1.96,-0.52 -2.71,-1.23 -2.15,-2.05 -3.7,-4.72 -4.44,-7.6 -0.16,-0.62 -0.97,-0.79 -1.34,-0.28 -2.8,3.87 -4.25,10.08 -4.32,14.47 C 40.47,113 51.68,124 65.24,124 82.33,124 94.78,105.1 84.96,89.3 82.11,84.7 79.43,81.69 76.11,77.42 Z"
         fill="url(#b)"
         id="path13-7" /></g><path
       d="M 99.009411,89.329057 H 80.259412 c -0.345313,0 -0.625,0.279688 -0.625,0.625001 v 1.249999 c 0,0.345313 0.279687,0.625001 0.625,0.625001 h 18.749999 c 0.345312,0 0.625,-0.279688 0.625,-0.625001 v -1.249999 c 0,-0.345313 -0.279688,-0.625001 -0.625,-0.625001 z m -11.875,-2.499999 -2.5,-1.250001 2.5,-1.25 1.250001,-2.5 1.249999,2.5 2.500001,1.25 -2.500001,1.250001 -0.624999,1.25 h 8.124999 l -3.37539,-7.876173 a 2.4982422,2.4982421 0 0 1 -0.07383,-1.77539 l 2.19922,-6.598437 -7.327345,4.187109 a 4.9995704,4.9995701 0 0 0 -2.088281,2.310547 l -4.334373,9.752344 h 5.624999 z m 2.5,-8.750001 0.625001,-1.249999 0.625,1.249999 1.25,0.625001 -1.25,0.625001 -0.625,1.249998 -0.625001,-1.249998 -1.249999,-0.625001 z"
       id="path1-0"
       style="stroke-width:0.0390626;fill:#999999" /><g
       style="fill:#008000"
       id="g3"
       transform="matrix(0.90455334,-1.1965715,1.1965727,0.90455424,61.459482,165.82881)"><path
         clip-rule="evenodd"
         d="M 2,11.999 C 2,6.47618 6.47715,1.99902 12,1.99902 c 5.5228,0 10,4.47716 10,9.99998 0,5.5229 -4.4772,10 -10,10 -5.52285,0 -10,-4.4771 -10,-10 z M 12,6.5 c -0.8284,0 -1.5,0.67157 -1.5,1.5 v 0.01 c 0,0.82843 0.6716,1.5 1.5,1.5 h 0.01 c 0.8284,0 1.5,-0.67157 1.5,-1.5 V 8 c 0,-0.82843 -0.6716,-1.5 -1.5,-1.5 z m 0,8 c -0.8284,0 -1.5,0.6716 -1.5,1.5 v 0.01 c 0,0.8284 0.6716,1.5 1.5,1.5 h 0.01 c 0.8284,0 1.5,-0.6716 1.5,-1.5 V 16 c 0,-0.8284 -0.6716,-1.5 -1.5,-1.5 z M 8,12 c 0,-0.5523 0.44772,-1 1,-1 h 6 c 0.5522,0 1,0.4477 1,1 0,0.5523 -0.4478,1 -1,1 H 9 C 8.44772,13 8,12.5523 8,12 Z"
         fill="#292929"
         fill-rule="evenodd"
         id="path1-7"
         style="fill:#008000" /></g></g></svg>
