<?xml version="1.0" encoding="UTF-8" standalone="no"?>
<!-- Created with Inkscape (http://www.inkscape.org/) -->

<svg
   width="210mm"
   height="297mm"
   viewBox="0 0 210 297"
   version="1.1"
   id="svg1"
   inkscape:version="1.3.2 (091e20e, 2023-11-25, custom)"
   sodipodi:docname="Multiplication_Knight.svg"
   xml:space="preserve"
   xmlns:inkscape="http://www.inkscape.org/namespaces/inkscape"
   xmlns:sodipodi="http://sodipodi.sourceforge.net/DTD/sodipodi-0.dtd"
   xmlns="http://www.w3.org/2000/svg"
   xmlns:svg="http://www.w3.org/2000/svg"><sodipodi:namedview
     id="namedview1"
     pagecolor="#ffffff"
     bordercolor="#000000"
     borderopacity="0.25"
     inkscape:showpageshadow="2"
     inkscape:pageopacity="0.0"
     inkscape:pagecheckerboard="0"
     inkscape:deskcolor="#d1d1d1"
     inkscape:document-units="mm"
     inkscape:zoom="0.70110129"
     inkscape:cx="248.89414"
     inkscape:cy="308.08673"
     inkscape:window-width="2400"
     inkscape:window-height="1271"
     inkscape:window-x="-9"
     inkscape:window-y="-9"
     inkscape:window-maximized="1"
     inkscape:current-layer="layer1" /><defs
     id="defs1"><inkscape:path-effect
       effect="slice"
       start_point="289.70396,37.407996"
       end_point="289.70396,110.98073"
       center_point="289.70396,74.194363"
       id="path-effect119"
       is_visible="true"
       lpeversion="1.2"
       lpesatellites="#g120"
       allow_transforms="true" /><inkscape:path-effect
       effect="slice"
       start_point="271.52475,145.4192"
       end_point="271.52475,211.38995"
       center_point="271.52475,178.40457"
       id="path-effect56"
       is_visible="true"
       lpeversion="1.2"
       lpesatellites="#g77"
       allow_transforms="true" /></defs><g
     inkscape:label="Layer 1"
     inkscape:groupmode="layer"
     id="layer1"><rect
       style="fill:#000000;stroke-width:0.264583"
       id="rect3"
       width="47.550194"
       height="80.75985"
       x="-510.2211"
       y="-57.739517"
       ry="12.642315"
       rx="16.79352" /><path
       style="fill:#8b8b8b;fill-opacity:1;stroke-width:100;stroke-dasharray:none;paint-order:stroke fill markers"
       d="m -33.009572,100.84831 c 0,46.29843 0,49.36721 0,49.36721"
       id="path87" /><g
       id="g62"
       transform="matrix(0.69246898,0,0,0.70369739,75.740998,-87.310403)"><rect
         style="fill:#e6e6e6;stroke-width:0.109441"
         id="rect60"
         width="19.522236"
         height="33.655098"
         x="-141.308"
         y="163.5938"
         ry="5.2684388"
         rx="6.8947577"
         transform="matrix(0.95014955,-0.31179454,0.31155499,0.95022812,0,0)" /><rect
         style="fill:#999999;stroke-width:0.0808233"
         id="rect61"
         width="10.647624"
         height="33.654278"
         x="-140.3936"
         y="162.59406"
         ry="5.2683105"
         rx="3.7604706"
         transform="matrix(0.9478963,-0.31857905,0.30795658,0.95140041,0,0)" /><rect
         style="fill:#a05a2c;stroke-width:0.125153"
         id="rect62"
         width="5.3954258"
         height="159.25064"
         x="126.02018"
         y="-325.78925"
         ry="24.929426"
         rx="1.9055275"
         transform="matrix(-0.95578456,0.29406782,-0.29646888,-0.95504251,0,0)" /></g><g
       id="g57"
       transform="matrix(0.69246898,0,0,0.70369739,87.761977,-85.982589)"><rect
         style="fill:#e6e6e6;stroke-width:0.109441"
         id="rect55"
         width="19.522236"
         height="33.655098"
         x="-141.308"
         y="163.5938"
         ry="5.2684388"
         rx="6.8947577"
         transform="matrix(0.95014955,-0.31179454,0.31155499,0.95022812,0,0)" /><rect
         style="fill:#999999;stroke-width:0.0808233"
         id="rect56"
         width="10.647624"
         height="33.654278"
         x="-140.3936"
         y="162.59406"
         ry="5.2683105"
         rx="3.7604706"
         transform="matrix(0.9478963,-0.31857905,0.30795658,0.95140041,0,0)" /><rect
         style="fill:#a05a2c;stroke-width:0.125153"
         id="rect57"
         width="5.3954258"
         height="159.25064"
         x="126.02018"
         y="-325.78925"
         ry="24.929426"
         rx="1.9055275"
         transform="matrix(-0.95578456,0.29406782,-0.29646888,-0.95504251,0,0)" /></g><g
       id="g68"
       transform="matrix(0.69246898,0,0,0.70369739,-132.53555,54.500267)"><rect
         style="fill:#e6e6e6;stroke-width:0.109441"
         id="rect66"
         width="19.522236"
         height="33.655098"
         x="-213.64337"
         y="-106.98122"
         ry="5.2684388"
         rx="6.8947577"
         transform="matrix(-0.95014955,0.31179454,-0.31155499,-0.95022812,0,0)" /><rect
         style="fill:#999999;stroke-width:0.0808233"
         id="rect67"
         width="10.647624"
         height="33.654278"
         x="-213.75699"
         y="-108.50762"
         ry="5.2683105"
         rx="3.7604706"
         transform="matrix(-0.9478963,0.31857905,-0.30795658,-0.95140041,0,0)" /><rect
         style="fill:#a05a2c;stroke-width:0.125153"
         id="rect68"
         width="5.3954258"
         height="159.25064"
         x="-208.1138"
         y="-228.72813"
         ry="24.929426"
         rx="1.9055275"
         transform="matrix(-0.95578456,0.29406782,-0.29646888,-0.95504251,0,0)" /></g><rect
       style="fill:#2b1100;stroke-width:0.238926"
       id="rect7"
       width="40.167107"
       height="77.961624"
       x="2.1644979"
       y="97.43322"
       ry="12.204276"
       rx="14.186"
       transform="matrix(0.96267755,-0.27065094,0.20378213,0.97901626,0,0)" /><rect
       style="fill:#552200;stroke-width:0.119315"
       id="rect70"
       width="39.385071"
       height="19.828167"
       x="0.78708667"
       y="104.419"
       ry="3.1039424"
       rx="13.909805"
       transform="matrix(0.97020042,-0.24230382,0.21553906,0.97649522,0,0)" /><g
       style="fill:#ffcc00"
       id="g30"
       transform="matrix(0.37123045,0,0,0.35948903,38.099268,67.195327)"><g
         id="g1"
         style="fill:#ffcc00">
	<path
   d="m 137.543,30.271 c -14.217,4.455 -50.252,47.158 -52.465,65.812 -2.225,18.689 16.009,55.145 16.009,55.145 0,0 -39.124,-25.351 -29.345,-60.481 9.786,-35.13 22.683,-76.905 70.25,-88.927 47.566,-12.016 67.978,39.387 67.978,39.387 0,0 69.42,28.2 52.068,57.113 -4.811,-17.604 -6.224,-14.24 -6.224,-14.24 0,0 8.011,34.231 -0.888,44.478 4.169,-15.986 -16.009,-46.166 -13.79,-33.805 12.016,18.24 13.335,74.266 13.335,74.266 0,0 9.938,-2.522 10.24,8.005 -4.448,-3.112 -12.902,0 -12.902,0 0,0 28.014,10.235 24.008,19.115 -5.769,-4.437 -22.222,-4.875 -22.222,-4.875 0,0 10.673,41.331 18.229,51.572 7.555,10.229 20.015,31.132 30.231,40.905 -5.324,3.117 -82.265,-55.584 -82.265,-55.584 0,0 35.58,50.247 59.576,55.584 -14.223,4.449 -48.017,-12.448 -48.017,-12.448 0,0 34.227,37.354 64.47,39.573 -31.119,25.352 -96.477,-47.572 -96.477,-47.572 0,0 48.974,84.671 33.339,94.27 -7.111,-10.229 -18.217,-21.801 -18.217,-21.801 0,0 18.672,32.019 5.769,36.467 -2.674,-16.453 -17.772,-28.469 -17.772,-28.469 0,0 -4.017,12.46 4.438,26.694 -20.003,3.55 -32.451,-52.045 -32.451,-52.045 L 160.669,192.134 c 0,0 33.793,-94.257 28.901,-117.384 -4.875,-23.139 -37.793,-48.916 -52.027,-44.479 z"
   id="path1-7"
   style="fill:#ffcc00" />
</g></g><rect
       style="fill:#ffb380;fill-opacity:1;stroke-width:0.0581963"
       id="rect71"
       width="31.144957"
       height="16.303802"
       x="-200.29774"
       y="12.769341"
       ry="5.2776742"
       rx="15.363918"
       transform="matrix(-0.61421639,-0.78913765,0.77942766,-0.62649223,0,0)" /><path
       id="path71"
       style="fill:#666666;stroke-width:0.0608215"
       d="m 127.16367,134.32722 c 4.16827,-3.49789 9.53085,-6.40007 9.53085,-6.40007 l -6.21846,-9.3196 c -2.54174,-3.80931 -10.66924,-2.1713 -14.58559,0.86128 -3.91638,3.03258 -6.09077,9.37054 -3.52373,13.16146 l 5.72846,8.4596 c 0,0 5.17664,-3.49675 9.06847,-6.76267 z"
       sodipodi:nodetypes="scssscs" /><rect
       style="fill:#454837;stroke-width:0.197551;stroke-dasharray:none"
       id="rect8"
       width="58.536942"
       height="99.851715"
       x="63.458694"
       y="80.25988"
       ry="32.322815"
       rx="28.876482" /><rect
       style="fill:#000000;stroke-width:0.146809"
       id="rect86"
       width="22.041731"
       height="146.60368"
       x="200.95827"
       y="-165.50636"
       ry="47.45681"
       rx="10.873264"
       transform="rotate(90)" /><path
       style="fill:#454837;fill-opacity:1;stroke:#454837;stroke-width:16.7535;stroke-linecap:round;stroke-linejoin:round;stroke-dasharray:none;stroke-opacity:1;paint-order:stroke fill markers"
       d="m 86.473209,167.23178 c -17.309676,6.9721 -19.441394,19.08555 -19.207436,32.00035"
       id="path117"
       sodipodi:nodetypes="cc" /><rect
       style="fill:#ffccaa;fill-opacity:1;stroke-width:0.0957411"
       id="rect9"
       width="42.073425"
       height="32.664261"
       x="71.821114"
       y="94.334717"
       ry="10.573688"
       rx="20.754971" /><path
       id="path10"
       style="fill:#666666;stroke-width:0.156243"
       d="m 90.91199,111.63733 c 14.68713,-0.52113 31.08364,1.88983 31.08364,1.88983 l 0.8228,-27.257025 C 123.15474,75.129038 102.621,66.151682 89.218544,66.151682 c -13.402448,0 -28.121749,8.975048 -28.37335,20.118453 L 60.283733,111.1371 c 0,0 16.915161,0.9868 30.628257,0.50023 z"
       sodipodi:nodetypes="scssscs" /><rect
       style="fill:#000000;fill-opacity:1;stroke-width:0.0824801"
       id="rect10"
       width="5.2265129"
       height="7.4357653"
       x="82.535446"
       y="112.65858"
       ry="3.7178826" /><rect
       style="fill:#000000;fill-opacity:1;stroke-width:0.0824801"
       id="rect11"
       width="5.2265129"
       height="7.4357653"
       x="103.18019"
       y="112.65858"
       ry="3.7178826" /><path
       id="path12"
       style="fill:#666666;stroke-width:0.0475111"
       d="m 95.296545,108.19692 c 3.535068,0.20019 5.531715,-0.0119 5.531715,-0.0119 l -0.0838,9.62444 c -0.0153,1.75426 -4.62113,8.82325 -5.790176,8.79117 -1.223635,-0.0336 -5.888196,-8.65839 -5.888196,-8.65839 l 0.116494,-9.75722 c 0,0 2.81337,-0.17506 6.114017,0.0119 z"
       sodipodi:nodetypes="scssccss" /><rect
       style="fill:#999999;stroke-width:0.07406"
       id="rect84"
       width="5.4878383"
       height="5.7096057"
       x="91.927567"
       y="103.49574"
       ry="2.8548028" /><rect
       style="fill:#999999;stroke-width:0.07406"
       id="rect85"
       width="5.4878383"
       height="5.7096057"
       x="92.019951"
       y="94.106674"
       ry="2.8548028" /><path
       style="fill:#454837;fill-opacity:1;stroke:#454837;stroke-width:16.7535;stroke-linecap:round;stroke-linejoin:round;stroke-dasharray:none;stroke-opacity:1;paint-order:stroke fill markers"
       d="m 101.48158,167.49735 c 17.30968,6.97209 19.44139,19.08554 19.20744,32.00034"
       id="path116"
       sodipodi:nodetypes="cc" /><rect
       style="fill:#666666;fill-opacity:1;stroke-width:0.184695"
       id="rect1"
       width="14.111585"
       height="13.809278"
       x="74.818481"
       y="128.72324"
       ry="6.9046392" /><rect
       style="fill:#ffccaa;fill-opacity:1;stroke-width:0.0581961"
       id="rect12"
       width="31.175745"
       height="16.28755"
       x="-99.167023"
       y="110.76675"
       ry="5.2724128"
       rx="15.379107"
       transform="matrix(0.56225561,-0.8269635,0.8184114,0.57463274,0,0)" /><path
       id="path13"
       style="fill:#666666;stroke-width:0.0608215"
       d="m 53.176557,136.3749 c 5.314491,1.00528 10.94549,3.32372 10.94549,3.32372 l 3.045562,-10.82634 c 1.244844,-4.42518 -5.205691,-9.70998 -10.007327,-10.81739 -4.801649,-1.10742 -10.980826,1.2636 -12.195562,5.69669 l -2.710733,9.89266 c 0,0 5.960538,1.79207 10.92257,2.73066 z"
       sodipodi:nodetypes="scssscs" /><rect
       style="fill:#ffccaa;fill-opacity:1;stroke-width:0.0581928"
       id="rect13"
       width="30.837069"
       height="16.464579"
       x="-67.36808"
       y="-155.894"
       ry="5.3297191"
       rx="15.212037"
       transform="matrix(-0.99933749,0.03639485,-0.03524412,-0.99937873,0,0)" /><g
       style="fill:#800080"
       id="g2"
       transform="matrix(1.5,0,0,1.5,75.114018,138.89165)"><path
         clip-rule="evenodd"
         d="M 22,12 C 22,17.5228 17.5228,22 12,22 6.47715,22 2,17.5228 2,12 2,6.47715 6.47715,2 12,2 17.5228,2 22,6.47715 22,12 Z M 15.7123,16.773 12,13.0607 8.28769,16.773 7.22703,15.7123 10.9393,12 7.22703,8.28769 8.28769,7.22703 12,10.9393 15.7123,7.22703 16.773,8.28769 13.0607,12 16.773,15.7123 Z"
         fill="#000000"
         fill-rule="evenodd"
         id="path1-5"
         style="fill:#800080" /></g><rect
       style="fill:#cccccc;stroke-width:0.0550065"
       id="rect31"
       width="2.1997185"
       height="75.455093"
       x="28.166069"
       y="147.93181"
       ry="11.811896"
       rx="0.77688473"
       transform="matrix(-0.74341163,0.66883417,0.62719031,0.77886604,0,0)" /><rect
       style="fill:#ffb380;fill-opacity:1;stroke-width:0.0581928"
       id="rect75"
       width="30.836802"
       height="16.464718"
       x="-163.53415"
       y="-143.72574"
       ry="5.3297634"
       rx="15.211905"
       transform="matrix(-0.99961169,-0.02786521,0.02698371,-0.99963587,0,0)" /><rect
       style="fill:#cccccc;stroke-width:0.0550065"
       id="rect30"
       width="2.1997185"
       height="75.455093"
       x="141.13269"
       y="-17.608994"
       ry="11.811896"
       rx="0.77688473"
       transform="matrix(0.74341163,0.66883417,-0.62719031,0.77886604,0,0)" /><rect
       style="fill:#666666;fill-opacity:1;stroke-width:0.184695"
       id="rect42"
       width="14.111585"
       height="13.809278"
       x="101.83701"
       y="128.11809"
       ry="6.9046392" /><g
       id="g40"
       transform="matrix(0.20041579,-0.67358026,0.66283241,0.20366554,23.499065,282.58785)"><rect
         style="fill:#e6e6e6;stroke-width:0.109441"
         id="rect35"
         width="19.522236"
         height="33.655098"
         x="-213.64337"
         y="-106.98122"
         ry="5.2684388"
         rx="6.8947577"
         transform="matrix(-0.95014955,0.31179454,-0.31155499,-0.95022812,0,0)" /><rect
         style="fill:#999999;stroke-width:0.0808233"
         id="rect36"
         width="10.647624"
         height="33.654278"
         x="-213.75699"
         y="-108.50762"
         ry="5.2683105"
         rx="3.7604706"
         transform="matrix(-0.9478963,0.31857905,-0.30795658,-0.95140041,0,0)" /><rect
         style="fill:#a05a2c;stroke-width:0.125153"
         id="rect40"
         width="5.3954258"
         height="159.25064"
         x="-208.1138"
         y="-228.72813"
         ry="24.929426"
         rx="1.9055275"
         transform="matrix(-0.95578456,0.29406782,-0.29646888,-0.95504251,0,0)" /></g><rect
       style="fill:#ffccaa;fill-opacity:1;stroke-width:0.0586371;stroke-dasharray:none"
       id="rect14"
       width="12.046525"
       height="15.518316"
       x="69.967049"
       y="129.91104"
       ry="2.4292693"
       rx="4.2545261"
       transform="matrix(0.99944664,0.03326271,-0.03221078,0.9994811,0,0)" /><g
       id="g26"
       style="display:inline;fill:#4d4d4d"
       transform="matrix(-0.00496213,0.50301156,-0.57182964,-0.00436495,231.20555,-8.8847723)"><path
         id="path25"
         d="m 289.70396,110.62022 7.06557,0.0751 c 9.30307,0.0993 18.91189,1.86247 16.66016,-4.76953 L 295.81641,54.052734 c -2.23717,-6.589117 -4.69005,-11.582013 -6.11245,-14.236668 z"
         style="fill:#4d4d4d;stroke-width:0.264583" /></g><g
       id="g27"
       style="display:inline;fill:#999999"
       transform="matrix(0.00496213,-0.50301156,-0.57182964,-0.00436495,228.32812,282.80113)"><path
         id="path26"
         d="m 289.70396,110.62022 7.06557,0.0751 c 9.30307,0.0993 18.91189,1.86247 16.66016,-4.76953 L 295.81641,54.052734 c -2.23717,-6.589117 -4.69005,-11.582013 -6.11245,-14.236668 z"
         style="fill:#999999;stroke-width:0.264583" /></g><path
       style="fill:#803300;fill-opacity:0;stroke:#502d16;stroke-width:4.88642;stroke-linecap:round;stroke-linejoin:round;stroke-dasharray:none;stroke-opacity:1;paint-order:stroke fill markers"
       d="m 116.32915,82.660261 c 63.21654,44.521159 51.8131,70.304879 2.2879,108.454119"
       id="path22"
       sodipodi:nodetypes="cc" /><rect
       style="fill:#ffccaa;fill-opacity:1;stroke-width:0.0586372;stroke-dasharray:none"
       id="rect76"
       width="12.047803"
       height="15.516723"
       x="163.58057"
       y="119.97927"
       ry="2.4290199"
       rx="4.2549772"
       transform="matrix(0.996091,0.088333,-0.08555735,0.99633325,0,0)" /><g
       id="g28"
       transform="matrix(0.18321575,0,0,0.1861866,104.23247,150.34626)"><path
         d="m 35.56,40.73 c -0.57,6.08 -0.97,16.84 2.62,21.42 0,0 -1.69,-11.82 13.46,-26.65 6.1,-5.97 7.51,-14.09 5.38,-20.18 C 55.81,11.87 53.6,9.02 51.68,7.03 50.56,5.86 51.42,3.93 53.05,4 c 9.86,0.44 25.84,3.18 32.63,20.22 2.98,7.48 3.2,15.21 1.78,23.07 -0.9,5.02 -4.1,16.18 3.2,17.55 5.21,0.98 7.73,-3.16 8.86,-6.14 0.47,-1.24 2.1,-1.55 2.98,-0.56 8.8,10.01 9.55,21.8 7.73,31.95 -3.52,19.62 -23.39,33.9 -43.13,33.9 -24.66,0 -44.29,-14.11 -49.38,-39.65 -2.05,-10.31 -1.01,-30.71 14.89,-45.11 1.18,-1.08 3.11,-0.12 2.95,1.5 z"
         fill="url(#a)"
         id="path12-2" /><path
         d="m 76.11,77.42 c -9.09,-11.7 -5.02,-25.05 -2.79,-30.37 0.3,-0.7 -0.5,-1.36 -1.13,-0.93 -3.91,2.66 -11.92,8.92 -15.65,17.73 -5.05,11.91 -4.69,17.74 -1.7,24.86 1.8,4.29 -0.29,5.2 -1.34,5.36 -1.02,0.16 -1.96,-0.52 -2.71,-1.23 -2.15,-2.05 -3.7,-4.72 -4.44,-7.6 -0.16,-0.62 -0.97,-0.79 -1.34,-0.28 -2.8,3.87 -4.25,10.08 -4.32,14.47 C 40.47,113 51.68,124 65.24,124 82.33,124 94.78,105.1 84.96,89.3 82.11,84.7 79.43,81.69 76.11,77.42 Z"
         fill="url(#b)"
         id="path13-7" /></g><g
       id="g29"
       transform="matrix(0.18321575,0,0,0.1861866,40.890287,58.518281)"><path
         d="m 35.56,40.73 c -0.57,6.08 -0.97,16.84 2.62,21.42 0,0 -1.69,-11.82 13.46,-26.65 6.1,-5.97 7.51,-14.09 5.38,-20.18 C 55.81,11.87 53.6,9.02 51.68,7.03 50.56,5.86 51.42,3.93 53.05,4 c 9.86,0.44 25.84,3.18 32.63,20.22 2.98,7.48 3.2,15.21 1.78,23.07 -0.9,5.02 -4.1,16.18 3.2,17.55 5.21,0.98 7.73,-3.16 8.86,-6.14 0.47,-1.24 2.1,-1.55 2.98,-0.56 8.8,10.01 9.55,21.8 7.73,31.95 -3.52,19.62 -23.39,33.9 -43.13,33.9 -24.66,0 -44.29,-14.11 -49.38,-39.65 -2.05,-10.31 -1.01,-30.71 14.89,-45.11 1.18,-1.08 3.11,-0.12 2.95,1.5 z"
         fill="url(#a)"
         id="path12-1" /><path
         d="m 76.11,77.42 c -9.09,-11.7 -5.02,-25.05 -2.79,-30.37 0.3,-0.7 -0.5,-1.36 -1.13,-0.93 -3.91,2.66 -11.92,8.92 -15.65,17.73 -5.05,11.91 -4.69,17.74 -1.7,24.86 1.8,4.29 -0.29,5.2 -1.34,5.36 -1.02,0.16 -1.96,-0.52 -2.71,-1.23 -2.15,-2.05 -3.7,-4.72 -4.44,-7.6 -0.16,-0.62 -0.97,-0.79 -1.34,-0.28 -2.8,3.87 -4.25,10.08 -4.32,14.47 C 40.47,113 51.68,124 65.24,124 82.33,124 94.78,105.1 84.96,89.3 82.11,84.7 79.43,81.69 76.11,77.42 Z"
         fill="url(#b)"
         id="path13-0" /></g><path
       d="m 103.22615,74.926766 c 0.22001,-0.529342 0.11831,-0.701676 -0.0943,-0.914684 -0.28401,-0.284667 -0.96098,-0.540341 -1.40698,0.0077 -0.18799,0.232675 -0.30666,0.480675 -0.36599,0.71135 0.069,0.362667 1.26597,0.0077 1.00564,-0.176007 -0.28432,-0.199341 -0.082,-0.218341 -0.029,-0.212675 0.15501,0.01567 0.61466,0.159668 0.18635,0.588342 -0.29067,0.290668 -0.90699,0.218001 -1.20632,0.164667 -0.20567,-0.03666 -0.50966,-0.112 -0.80064,-0.242334 -1.691309,-0.754682 -6.839182,-3.210384 -11.01541,0.966017 l -0.153004,0.155001 1.590306,1.591024 c 0,0 3.419909,-3.495384 8.939774,-0.991016 1.119654,0.507008 1.967634,0.11 2.542954,-0.455341 l -0.008,0.01073 -2.907597,8.716143 c -0.065,-0.08164 -0.156658,-0.159334 -0.22333,-0.166341 -0.226989,-0.02127 -1.01131,0.250674 -1.01131,0.250674 0,0 0.779981,-0.276674 0.756981,-0.501675 -0.01007,-0.09739 -0.277669,-0.276014 -0.277669,-0.276014 -0.758646,0.368348 -1.77529,0.479342 -1.981273,0.498681 l -6.458177,-6.458441 0.26801,-0.268 -1.59264,-1.590692 -0.266988,0.266674 -2.621603,-2.621375 0.0027,-0.0033 -0.09336,-1.093684 -2.656281,-1.15569 1.156305,2.655708 1.085975,0.093 2.625269,2.625369 -0.259315,0.259674 1.590626,1.592692 0.260329,-0.260668 6.458176,6.458101 c -0.015,0.166995 -0.120685,1.213351 -0.497325,1.988694 0,0 0.177657,0.267667 0.273996,0.277347 0.224663,0.02127 0.500644,-0.755022 0.500644,-0.755022 0,0 -0.271322,0.781009 -0.249308,1.007342 0.0066,0.0646 0.08,0.153341 0.15933,0.217682 l -8.699805,2.901716 -0.01434,0.01007 c 0.566663,-0.575308 0.965324,-1.423985 0.456999,-2.545342 -2.503937,-5.520411 0.990636,-8.940129 0.990636,-8.940129 l -1.590104,-1.590385 -0.154997,0.153001 c -4.177235,4.177067 -1.719958,9.324484 -0.966644,11.016502 0.130331,0.291008 0.20633,0.594342 0.243329,0.800016 0.05366,0.297668 0.125605,0.909683 -0.163003,1.198684 -0.425314,0.425015 -0.568644,-0.0324 -0.584644,-0.184674 -0.0034,-0.05327 0.01333,-0.253334 0.212323,0.02794 0.182998,0.26034 0.536992,-0.939677 0.168664,-0.997671 -0.230323,0.05933 -0.477318,0.177328 -0.708321,0.366001 -0.548318,0.445335 -0.292982,1.122351 -0.0088,1.406358 0.212995,0.212994 0.384653,0.315008 0.913984,0.09499 0.08364,-0.03466 0.18133,-0.08164 0.285328,-0.136667 l 9.98843,-3.331064 c 6.53e-4,0.03807 0.0053,0.06967 0.01833,0.0834 0.152996,0.153667 0.270988,0.273001 0.381646,0.383668 0.08668,-0.172334 0.188677,-0.417667 0.294335,-0.699009 l 0.436993,-0.145667 c -0.154997,0.437335 -0.319002,0.833349 -0.477319,1.101024 0.03467,0.03467 0.0683,0.06866 0.105318,0.106326 0.22799,0.229334 0.562984,-0.767682 0.728648,-1.326357 l 0.333994,-0.111367 0.06239,0.0624 c 0.0693,0.06967 0.237323,0.01333 0.375327,-0.123974 0.137998,-0.138 0.193997,-0.307 0.124725,-0.375334 l -0.05874,-0.05874 0.111625,-0.334675 c 0.561984,-0.166668 1.551298,-0.500682 1.322288,-0.728009 -0.0376,-0.03706 -0.071,-0.07005 -0.10594,-0.104693 -0.26533,0.158327 -0.659984,0.321001 -1.096976,0.475001 l 0.146325,-0.437376 c 0.280335,-0.104693 0.524331,-0.205653 0.694311,-0.291993 -0.11199,-0.110995 -0.231983,-0.230002 -0.387651,-0.383682 -0.0126,-0.0126 -0.04067,-0.0174 -0.07496,-0.01866 L 103.094,75.203562 c 0.0529,-0.100334 0.0984,-0.195334 0.13233,-0.277001 m -18.390567,-0.715669 0.04294,-0.679015 -0.963311,-1.239685 1.239646,0.961683 0.679641,-0.043 -0.458658,0.293674 0.289668,0.536343 -0.537318,-0.289008 z m 11.95071,13.56521 c 0.09273,-0.141674 0.17567,-0.31 0.17567,-0.31 0,0 -0.03834,0.127333 -0.07534,0.276333 z m 0.882985,-0.294 c 0.07798,-0.226675 0.155997,-0.464009 0.228662,-0.701016 l 0.285322,0.285007 c -0.02874,0.09096 -0.05733,0.182341 -0.08705,0.273001 z m 0.739313,-0.189674 c 0,-3.27e-4 3.34e-4,-3.27e-4 0,0 l 0.164658,0.163666 z m 0.522319,-0.477336 -0.019,-0.019 z m 0.02733,-0.332341 c -0.0907,0.02933 -0.18199,0.05833 -0.272981,0.08668 l -0.286663,-0.286668 c 0.237656,-0.0727 0.475659,-0.149673 0.702315,-0.228014 z m 0.118305,-1.13535 c 0,0 0.17699,-0.08705 0.321328,-0.182341 l -0.0354,0.104947 c -0.153658,0.03727 -0.285982,0.07736 -0.285982,0.07736"
       id="path1-6"
       style="fill:#999999;stroke-width:0.333331;fill-opacity:1" /></g></svg>
