<?xml version="1.0" encoding="UTF-8" standalone="no"?>
<!-- Created with Inkscape (http://www.inkscape.org/) -->

<svg
   width="210mm"
   height="297mm"
   viewBox="0 0 210 297"
   version="1.1"
   id="svg1"
   inkscape:version="1.3.2 (091e20e, 2023-11-25, custom)"
   sodipodi:docname="Subtraction_Knight.svg"
   xml:space="preserve"
   xmlns:inkscape="http://www.inkscape.org/namespaces/inkscape"
   xmlns:sodipodi="http://sodipodi.sourceforge.net/DTD/sodipodi-0.dtd"
   xmlns="http://www.w3.org/2000/svg"
   xmlns:svg="http://www.w3.org/2000/svg"><sodipodi:namedview
     id="namedview1"
     pagecolor="#ffffff"
     bordercolor="#000000"
     borderopacity="0.25"
     inkscape:showpageshadow="2"
     inkscape:pageopacity="0.0"
     inkscape:pagecheckerboard="0"
     inkscape:deskcolor="#d1d1d1"
     inkscape:document-units="mm"
     inkscape:zoom="0.70110129"
     inkscape:cx="558.40719"
     inkscape:cy="482.09867"
     inkscape:window-width="2400"
     inkscape:window-height="1271"
     inkscape:window-x="-9"
     inkscape:window-y="-9"
     inkscape:window-maximized="1"
     inkscape:current-layer="layer1"
     showgrid="false" /><defs
     id="defs1"><inkscape:path-effect
       effect="slice"
       start_point="289.70396,37.407996"
       end_point="289.70396,110.98073"
       center_point="289.70396,74.194363"
       id="path-effect119"
       is_visible="true"
       lpeversion="1.2"
       lpesatellites="#g120"
       allow_transforms="true" /><inkscape:path-effect
       effect="slice"
       start_point="271.52475,145.4192"
       end_point="271.52475,211.38995"
       center_point="271.52475,178.40457"
       id="path-effect56"
       is_visible="true"
       lpeversion="1.2"
       lpesatellites="#g77"
       allow_transforms="true" /><inkscape:path-effect
       effect="slice"
       start_point="289.70396,37.407996"
       end_point="289.70396,110.98073"
       center_point="289.70396,74.194363"
       id="path-effect119-1"
       is_visible="true"
       lpeversion="1.2"
       lpesatellites=""
       allow_transforms="true" /><inkscape:path-effect
       effect="slice"
       start_point="271.52475,145.4192"
       end_point="271.52475,211.38995"
       center_point="271.52475,178.40457"
       id="path-effect56-0"
       is_visible="true"
       lpeversion="1.2"
       lpesatellites=""
       allow_transforms="true" /></defs><g
     inkscape:label="Layer 1"
     inkscape:groupmode="layer"
     id="layer1"><rect
       style="fill:#ffaaaa;stroke-width:0.0609791"
       id="rect16"
       width="32.819073"
       height="16.987169"
       x="176.27057"
       y="52.690437"
       ry="5.4988861"
       rx="16.189768"
       transform="matrix(0.8782068,0.47828111,-0.49967152,0.86621497,0,0)" /><path
       id="path17"
       style="fill:#666666;stroke-width:0.0637241"
       d="m 135.78056,143.48391 c 3.80239,-4.24548 8.96999,-8.09239 8.96999,-8.09239 l -8.18127,-8.35961 c -3.34404,-3.41693 -11.65238,-0.37659 -15.26879,3.35569 -3.61642,3.73228 -4.82115,10.50844 -1.45356,13.90247 l 7.51495,7.57391 c 0,0 4.86846,-4.41614 8.41868,-8.38007 z"
       sodipodi:nodetypes="scssscs" /><rect
       style="fill:#454837;stroke-width:0.206979;stroke-dasharray:none"
       id="rect8"
       width="62.720951"
       height="102.29779"
       x="72.609467"
       y="78.43528"
       ry="33.114632"
       rx="30.940468" /><path
       id="path11"
       style="fill:#d4aa00;stroke-width:0.1637"
       d="m 105.38197,110.29755 c 15.73692,0.53389 24.62526,-0.0316 24.62526,-0.0316 l -0.51842,26.02026 c -0.22748,11.41725 -11.5609,20.6113 -25.92132,20.6113 -14.360405,0 -26.148778,-9.19405 -25.9213,-20.6113 l 0.518423,-26.02026 c 0,0 12.524108,-0.46685 27.217357,0.0316 z"
       sodipodi:nodetypes="scssscs" /><rect
       style="fill:#ffaaaa;fill-opacity:1;stroke-width:0.0609718"
       id="rect18"
       width="32.138931"
       height="17.342461"
       x="-151.77087"
       y="78.394447"
       ry="5.6138964"
       rx="15.854251"
       transform="matrix(0.19693352,-0.98041684,0.98248875,0.18632193,0,0)" /><rect
       style="fill:#ffaaaa;fill-opacity:1;stroke-width:0.100311"
       id="rect9"
       width="45.080681"
       height="33.464439"
       x="81.569595"
       y="92.854904"
       ry="10.832713"
       rx="22.238461" /><rect
       style="fill:#000000;stroke-width:0.153816"
       id="rect86"
       width="22.58169"
       height="157.0824"
       x="199.88524"
       y="-185.48352"
       ry="50.84885"
       rx="11.139628"
       transform="rotate(90)" /><path
       style="fill:#454837;fill-opacity:1;stroke:#454837;stroke-width:17.553;stroke-linecap:round;stroke-linejoin:round;stroke-dasharray:none;stroke-opacity:1;paint-order:stroke fill markers"
       d="M 97.268971,167.53774 C 78.722064,174.68063 76.437979,187.09083 76.688659,200.322"
       id="path117"
       sodipodi:nodetypes="cc" /><path
       id="path10"
       style="fill:#666666;stroke-width:0.1637"
       d="m 102.02502,110.58139 c 15.73691,-0.53389 33.30539,1.93613 33.30539,1.93613 l 0.8816,-27.924748 c 0.36035,-11.414022 -21.64106,-20.611297 -36.00148,-20.611297 -14.360402,0 -30.131789,9.19491 -30.401374,20.611297 L 69.207563,110.0689 c 0,0 18.1242,1.01098 32.817457,0.51249 z"
       sodipodi:nodetypes="scssscs" /><rect
       style="fill:#000000;stroke-width:0.0864162"
       id="rect10"
       width="5.6000848"
       height="7.6179199"
       x="93.049759"
       y="111.62766"
       ry="3.80896" /><rect
       style="fill:#000000;stroke-width:0.0864162"
       id="rect11"
       width="5.6000848"
       height="7.6179199"
       x="115.1701"
       y="111.62766"
       ry="3.80896" /><path
       id="path12"
       style="fill:#666666;stroke-width:0.0497786"
       d="m 106.72296,107.0567 c 3.78775,0.2051 5.92711,-0.0122 5.92711,-0.0122 l -0.12484,9.99624 c -0.0547,4.38617 -2.78261,7.91826 -6.23904,7.91826 -3.45645,0 -6.293813,-3.53209 -6.23906,-7.91826 l 0.12482,-9.99624 c 0,0 3.01447,-0.17934 6.55103,0.0122 z"
       sodipodi:nodetypes="scssscs" /><path
       id="path18"
       style="fill:#666666;stroke-width:0.0637241"
       d="m 61.592396,142.72667 c 5.694353,1.0299 11.727838,3.40515 11.727838,3.40515 l 3.263243,-11.09156 c 1.33382,-4.53359 -5.577771,-9.94785 -10.722613,-11.08238 -5.144851,-1.13455 -11.765695,1.29455 -13.067259,5.83624 l -2.904485,10.135 c 0,0 6.386574,1.83596 11.703276,2.79755 z"
       sodipodi:nodetypes="scssscs" /><rect
       style="fill:#999999;stroke-width:0.0775944"
       id="rect84"
       width="5.8800888"
       height="5.8494744"
       x="103.11318"
       y="102.24036"
       ry="2.9247372" /><rect
       style="fill:#999999;stroke-width:0.0775944"
       id="rect85"
       width="5.8800888"
       height="5.8494744"
       x="103.21217"
       y="92.621292"
       ry="2.9247372" /><path
       style="fill:#8b8b8b;fill-opacity:1;stroke-width:73.1374;stroke-dasharray:none;paint-order:stroke fill markers"
       d="m -5.0832736,112.23465 c 0,33.3782 0,35.59059 0,35.59059"
       id="path87" /><path
       style="fill:#454837;fill-opacity:1;stroke:#454837;stroke-width:17.553;stroke-linecap:round;stroke-linejoin:round;stroke-dasharray:none;stroke-opacity:1;paint-order:stroke fill markers"
       d="m 113.35008,167.80981 c 18.54691,7.14289 20.831,19.55309 20.58031,32.78426"
       id="path116"
       sodipodi:nodetypes="cc" /><path
       id="path9"
       style="fill:#666666;stroke-width:0.1637"
       d="m 140.49405,123.47913 c 15.73691,0.53388 24.62525,-0.0316 24.62525,-0.0316 l -0.51842,26.02026 c -0.22748,11.41725 -11.5609,20.6113 -25.92132,20.6113 -14.3604,0 -26.14879,-9.19405 -25.92131,-20.6113 l 0.51843,-26.02026 c 0,0 12.52411,-0.46685 27.21737,0.0316 z"
       sodipodi:nodetypes="scssscs" /><path
       id="path79"
       style="fill:#4d4d4d;stroke-width:0.133788"
       d="m 140.54968,128.43285 c 13.29731,0.42203 20.80776,-0.025 20.80776,-0.025 l -0.43806,20.5687 c -0.19222,9.0252 -9.76869,16.29298 -21.90289,16.29298 -12.13421,0 -22.09511,-7.26778 -21.9029,-16.29298 l 0.43806,-20.5687 c 0,0 10.58258,-0.36903 22.99803,0.025 z"
       sodipodi:nodetypes="scssscs" /><rect
       style="fill:#ffaaaa;fill-opacity:1;stroke-width:0.060982"
       id="rect117"
       width="32.672485"
       height="17.065002"
       x="-170.84366"
       y="-97.914696"
       ry="5.5240812"
       rx="16.117455"
       transform="matrix(-0.78564694,-0.6186751,0.64052273,-0.76793921,0,0)" /><g
       id="g122"
       transform="matrix(0.74196415,0,0,0.72093594,-135.71371,-20.325609)"><rect
         style="fill:#502d16;stroke-width:0.16289"
         id="rect118"
         width="7.5476522"
         height="192.84244"
         x="284.54639"
         y="90.571785"
         ry="30.187956"
         rx="2.6656392" /><g
         id="g120"
         style="display:inline;fill:#4d4d4d"
         transform="translate(-1.3208386,0.94345616)"><path
           id="path119"
           d="m 289.70396,110.62022 7.06557,0.0751 c 9.30307,0.0993 18.91189,1.86247 16.66016,-4.76953 L 295.81641,54.052734 c -2.23717,-6.589117 -4.69005,-11.582013 -6.11245,-14.236668 z"
           style="fill:#4d4d4d;stroke-width:0.264583" /></g><g
         id="g121"
         style="display:inline;fill:#999999"
         transform="matrix(-1,0,0,1,578.55827,0.94345701)"><path
           id="path120"
           d="m 289.70396,110.62022 7.06557,0.0751 c 9.30307,0.0993 18.91189,1.86247 16.66016,-4.76953 L 295.81641,54.052734 c -2.23717,-6.589117 -4.69005,-11.582013 -6.11245,-14.236668 z"
           style="fill:#999999;stroke-width:0.264583" /></g></g><rect
       style="fill:#ffaaaa;stroke-width:0.061438;stroke-dasharray:none"
       id="rect20"
       width="12.888002"
       height="15.923931"
       x="108.18945"
       y="136.52119"
       ry="2.4927649"
       rx="4.5517149"
       transform="matrix(0.97429807,0.22526267,-0.23786084,0.97129924,0,0)" /><path
       d="m 112.19529,77.333022 c -1.65855,1.171499 -3.27205,1.263658 -5.01244,0.567856 0.002,-0.02951 0.003,-0.05915 0.003,-0.08904 0,-0.860203 -0.70846,-1.557553 -1.58226,-1.557553 -0.15329,0 -0.30129,0.02189 -0.44151,0.06194 l -8.535828,-8.381366 -0.54232,0.0048 0.002,1.29052 8.079248,7.932209 c -0.0923,0.197738 -0.1442,0.417584 -0.1442,0.649432 0,0.860117 0.70841,1.557489 1.58226,1.557489 0.0858,0 0.16998,-0.0069 0.25206,-0.01989 0.5881,1.692446 0.44586,3.286777 -0.55057,4.766345 2.79979,1.874527 7.14442,3.60403 10.77,3.819103 0.15797,-3.666832 -1.84968,-7.786691 -3.87961,-10.601815 z"
       id="path1"
       style="stroke-width:0.0216771;fill:#999999" /><path
       d="m 139.01803,129.86746 c -8.28629,0 -15,6.71371 -15,14.99999 0,8.2863 6.71371,15.00001 15,15.00001 8.28629,0 15,-6.71371 15,-15.00001 0,-8.28628 -6.71371,-14.99999 -15,-14.99999 z m -7.98387,17.41935 c -0.3992,0 -0.72581,-0.32661 -0.72581,-0.72581 v -3.38709 c 0,-0.3992 0.32661,-0.72581 0.72581,-0.72581 h 15.96774 c 0.39919,0 0.72581,0.32661 0.72581,0.72581 v 3.38709 c 0,0.3992 -0.32662,0.72581 -0.72581,0.72581 z"
       id="path1-7"
       style="stroke-width:0.0604838;fill:#800000" /></g></svg>
