<?xml version="1.0" encoding="UTF-8" standalone="no"?>
<!-- Created with Inkscape (http://www.inkscape.org/) -->

<svg
   viewBox="0 0 210 198"
   version="1.1"
   id="svg1"
   sodipodi:docname="FlyingEye.svg"
   inkscape:version="1.3.2 (091e20e, 2023-11-25, custom)"
   xmlns:inkscape="http://www.inkscape.org/namespaces/inkscape"
   xmlns:sodipodi="http://sodipodi.sourceforge.net/DTD/sodipodi-0.dtd"
   xmlns:xlink="http://www.w3.org/1999/xlink"
   xmlns="http://www.w3.org/2000/svg"
   xmlns:svg="http://www.w3.org/2000/svg">
  <sodipodi:namedview
     id="namedview1"
     pagecolor="#ffffff"
     bordercolor="#000000"
     borderopacity="0.25"
     inkscape:showpageshadow="2"
     inkscape:pageopacity="0.0"
     inkscape:pagecheckerboard="0"
     inkscape:deskcolor="#d1d1d1"
     inkscape:document-units="mm"
     showgrid="false"
     inkscape:zoom="3.2196078"
     inkscape:cx="105.13703"
     inkscape:cy="127.5"
     inkscape:window-width="1920"
     inkscape:window-height="1017"
     inkscape:window-x="-8"
     inkscape:window-y="-8"
     inkscape:window-maximized="1"
     inkscape:current-layer="layer1" />
  <defs
     id="defs1">
    <linearGradient
       id="linearGradient15"
       inkscape:collect="always">
      <stop
         style="stop-color:#0c093a;stop-opacity:1;"
         offset="0"
         id="stop15" />
      <stop
         style="stop-color:#0800eb;stop-opacity:0;"
         offset="1"
         id="stop16" />
    </linearGradient>
    <radialGradient
       inkscape:collect="always"
       xlink:href="#linearGradient15"
       id="radialGradient16"
       cx="101.92606"
       cy="107.99217"
       fx="101.92606"
       fy="107.99217"
       r="28.035931"
       gradientTransform="matrix(1.110926,0.08464516,-0.08088976,1.0549873,-3.8369254,-50.927509)"
       gradientUnits="userSpaceOnUse" />
  </defs>
  <g
     inkscape:label="Ebene 1"
     inkscape:groupmode="layer"
     id="layer1">
    <path
       style="fill:#a72be2;fill-opacity:1;stroke:#6c1496;stroke-width:1.7;stroke-dasharray:none;stroke-opacity:1"
       d="m 130.23142,38.521316 c 0,0 19.53472,-18.811208 18.81121,-28.21681 -0.72351,-9.405604 33.71173,8.504648 42.68697,21.705237 5.78847,8.513549 11.21437,24.961024 2.89403,30.749086 -8.32034,5.788061 -17.36419,-9.405602 -17.36419,-9.405602 0,0 2.89403,8.682093 -5.42631,12.299633 -8.32034,3.61754 -12.66139,-7.596831 -12.66139,-7.596831 0,0 0.48333,11.619121 -5.42631,15.917171 -3.48899,2.53752 -7.59683,4.7028 -11.57613,-5.78806 -3.97929,-10.490865 -11.93788,-29.663824 -11.93788,-29.663824 z"
       id="path19"
       sodipodi:nodetypes="cssscscssc" />
    <path
       style="fill:#a72be2;fill-opacity:1;stroke:#6c1496;stroke-width:1.7;stroke-dasharray:none;stroke-opacity:1"
       d="m 73.806022,38.521316 c 0,0 -19.53471,-18.811208 -18.8112,-28.21681 0.72351,-9.405604 -33.71173,8.504648 -42.68697,21.705237 C 6.5193802,40.523292 1.0934802,56.970767 9.4138222,62.758829 17.734162,68.54689 26.778012,53.353227 26.778012,53.353227 c 0,0 -2.89403,8.682093 5.42631,12.299633 8.32034,3.61754 12.66139,-7.596831 12.66139,-7.596831 0,0 -0.48333,11.619121 5.42631,15.917171 3.48899,2.53752 7.59683,4.7028 11.57613,-5.78806 3.97929,-10.490865 11.93787,-29.663824 11.93787,-29.663824 z"
       id="path22"
       sodipodi:nodetypes="cssscscssc" />
    <path
       style="fill:#6c1496;fill-opacity:1;stroke:none;stroke-width:1.7;stroke-dasharray:none;stroke-opacity:1"
       d="m 70.33875,42.826116 c 0,0 -22.38238,-18.929101 -22.63818,-24.428774 -0.2558,-5.499671 -30.18424,17.650109 -30.18424,17.650109 0,0 -9.2677919,7.753781 -9.5924519,19.4407 -0.12791,4.604373 0.93633,8.793739 5.7554619,9.592449 5.36005,0.88837 12.78994,-10.104048 12.78994,-10.104048 0,0 -1.56707,11.514928 6.90656,12.278338 6.73086,0.60639 11.12725,-7.418161 11.12725,-7.418161 0,0 1.15109,14.324731 6.65076,16.626921 5.49967,2.30219 13.68523,-4.34857 13.68523,-4.34857 z"
       id="path21"
       sodipodi:nodetypes="cscsscscscc" />
    <path
       style="fill:#6c1496;fill-opacity:1;stroke:none;stroke-width:1.7;stroke-dasharray:none;stroke-opacity:1"
       d="m 133.39901,41.634898 c 0,0 22.38238,-18.929101 22.63818,-24.428773 0.2558,-5.499671 30.18424,17.650108 30.18424,17.650108 0,0 9.26779,7.753781 9.59245,19.4407 0.12791,4.604373 -0.93633,8.793736 -5.75546,9.59245 -5.36005,0.888367 -12.78994,-10.104049 -12.78994,-10.104049 0,0 1.56707,11.514926 -6.90656,12.278336 -6.73086,0.60639 -11.12725,-7.418159 -11.12725,-7.418159 0,0 -1.15109,14.324719 -6.65076,16.626909 -5.49967,2.30219 -13.68523,-4.34857 -13.68523,-4.34857 z"
       id="path20"
       sodipodi:nodetypes="cscsscscscc" />
    <ellipse
       style="fill:#dedeeb;fill-opacity:1;stroke:#6c1496;stroke-width:1.7;stroke-dasharray:none;stroke-opacity:1"
       id="path6"
       cx="101.29111"
       cy="71.621803"
       rx="46.304504"
       ry="41.42083" />
    <path
       style="fill:url(#radialGradient16);fill-opacity:1;stroke:none;stroke-width:1.87035;stroke-dasharray:none;stroke-opacity:1"
       id="path9-3"
       sodipodi:type="arc"
       sodipodi:cx="100.65993"
       sodipodi:cy="71.630417"
       sodipodi:rx="30.749084"
       sodipodi:ry="29.663824"
       sodipodi:start="0.034906585"
       sodipodi:end="0.029387432"
       sodipodi:arc-type="slice"
       d="M 131.39028,72.665669 A 30.749084,29.663824 0 0 1 99.629202,101.27757 30.749084,29.663824 0 0 1 69.92673,70.676978 a 30.749084,29.663824 0 0 1 31.67911,-28.696346 30.749084,29.663824 0 0 1 29.7899,30.521403 l -30.73581,-0.871618 z" />
    <path
       style="fill:#000000;fill-opacity:1;stroke:none;stroke-width:0.951293;stroke-dasharray:none;stroke-opacity:1"
       id="path9"
       sodipodi:type="arc"
       sodipodi:cx="101.11023"
       sodipodi:cy="70.898293"
       sodipodi:rx="14.651035"
       sodipodi:ry="16.098051"
       sodipodi:start="0.034906585"
       sodipodi:end="0.029387432"
       sodipodi:arc-type="slice"
       d="M 115.75234,71.460106 A 14.651035,16.098051 0 0 1 100.61912,86.987297 14.651035,16.098051 0 0 1 86.466764,70.380877 14.651035,16.098051 0 0 1 101.56093,54.80786 14.651035,16.098051 0 0 1 115.75494,71.371305 l -14.64471,-0.473012 z" />
    <circle
       id="path16"
       style="fill:#7771e6;stroke:#000000;stroke-width:0.264583"
       cx="42.686966"
       cy="84.825821"
       r="0.31105682" />
    <ellipse
       style="fill:#ffffff;fill-opacity:1;stroke:none;stroke-width:1.7;stroke-dasharray:none;stroke-opacity:1"
       id="path18"
       cx="112.14373"
       cy="61.130943"
       rx="3.6175394"
       ry="4.883678" />
    <ellipse
       style="fill:#6c1496;fill-opacity:1;stroke-width:3.21235"
       id="path1"
       cx="97.993301"
       cy="172.09988"
       rx="45.502434"
       ry="10.870889" />
  </g>
</svg>
